<svg xmlns="http://www.w3.org/2000/svg" xmlns:xlink="http://www.w3.org/1999/xlink" viewBox="0 0 1920 1080"><defs><style>.cls-1{isolation:isolate;}.cls-2{fill:url(#Degradado_sin_nombre_85);}.cls-3{fill:url(#Degradado_sin_nombre_85-2);}.cls-104,.cls-107,.cls-108,.cls-109,.cls-111,.cls-112,.cls-113,.cls-114,.cls-120,.cls-121,.cls-122,.cls-123,.cls-124,.cls-125,.cls-127,.cls-129,.cls-130,.cls-133,.cls-134,.cls-135,.cls-138,.cls-14,.cls-140,.cls-142,.cls-143,.cls-15,.cls-16,.cls-17,.cls-18,.cls-19,.cls-20,.cls-200,.cls-201,.cls-202,.cls-203,.cls-204,.cls-205,.cls-206,.cls-23,.cls-24,.cls-27,.cls-28,.cls-4,.cls-6,.cls-7,.cls-73,.cls-74,.cls-75,.cls-8,.cls-87,.cls-88,.cls-89,.cls-90,.cls-91,.cls-93,.cls-95,.cls-97,.cls-99{mix-blend-mode:multiply;}.cls-104,.cls-108,.cls-109,.cls-111,.cls-112,.cls-113,.cls-120,.cls-121,.cls-122,.cls-124,.cls-125,.cls-129,.cls-130,.cls-134,.cls-135,.cls-138,.cls-14,.cls-142,.cls-143,.cls-15,.cls-16,.cls-18,.cls-20,.cls-200,.cls-201,.cls-202,.cls-203,.cls-204,.cls-205,.cls-206,.cls-24,.cls-28,.cls-4,.cls-6,.cls-62,.cls-7,.cls-73,.cls-74,.cls-75,.cls-87,.cls-88,.cls-89,.cls-90,.cls-91,.cls-93,.cls-95,.cls-99{opacity:0.52;}.cls-4{fill:url(#Degradado_sin_nombre_50);}.cls-5{opacity:0.58;}.cls-6{fill:url(#Degradado_sin_nombre_50-2);}.cls-7{fill:url(#Degradado_sin_nombre_50-3);}.cls-114,.cls-140,.cls-180,.cls-27,.cls-8,.cls-97{opacity:0.12;}.cls-8{fill:url(#Degradado_sin_nombre_45);}.cls-10,.cls-100,.cls-101,.cls-102,.cls-103,.cls-105,.cls-106,.cls-11,.cls-110,.cls-115,.cls-116,.cls-117,.cls-118,.cls-119,.cls-12,.cls-126,.cls-128,.cls-13,.cls-131,.cls-132,.cls-136,.cls-137,.cls-139,.cls-141,.cls-180,.cls-181,.cls-21,.cls-22,.cls-25,.cls-26,.cls-29,.cls-30,.cls-55,.cls-57,.cls-58,.cls-59,.cls-60,.cls-61,.cls-62,.cls-63,.cls-64,.cls-68,.cls-76,.cls-77,.cls-78,.cls-79,.cls-80,.cls-81,.cls-82,.cls-83,.cls-84,.cls-85,.cls-9,.cls-94,.cls-96,.cls-98{mix-blend-mode:screen;}.cls-10,.cls-100,.cls-101,.cls-102,.cls-103,.cls-105,.cls-106,.cls-11,.cls-110,.cls-115,.cls-116,.cls-117,.cls-118,.cls-119,.cls-12,.cls-126,.cls-128,.cls-13,.cls-131,.cls-132,.cls-136,.cls-137,.cls-139,.cls-141,.cls-21,.cls-22,.cls-25,.cls-26,.cls-29,.cls-30,.cls-63,.cls-76,.cls-77,.cls-78,.cls-79,.cls-80,.cls-81,.cls-82,.cls-83,.cls-84,.cls-85,.cls-9,.cls-94,.cls-96,.cls-98{opacity:0.27;}.cls-9{fill:url(#Degradado_sin_nombre_2);}.cls-10{fill:url(#Degradado_sin_nombre_2-2);}.cls-11{fill:url(#Degradado_sin_nombre_2-3);}.cls-12{fill:url(#Degradado_sin_nombre_2-4);}.cls-13{fill:url(#Degradado_sin_nombre_2-5);}.cls-14{fill:url(#Degradado_sin_nombre_50-4);}.cls-15{fill:url(#Degradado_sin_nombre_50-5);}.cls-16{fill:url(#Degradado_sin_nombre_50-6);}.cls-107,.cls-123,.cls-133,.cls-17,.cls-23,.cls-59{opacity:0.1;}.cls-17{fill:url(#Degradado_sin_nombre_45-2);}.cls-18{fill:url(#Degradado_sin_nombre_50-7);}.cls-127,.cls-19,.cls-60{opacity:0.19;}.cls-19{fill:url(#Degradado_sin_nombre_45-3);}.cls-20{fill:url(#Degradado_sin_nombre_50-8);}.cls-21{fill:url(#Degradado_sin_nombre_2-6);}.cls-22{fill:url(#Degradado_sin_nombre_2-7);}.cls-23{fill:url(#Degradado_sin_nombre_45-4);}.cls-24{fill:url(#Degradado_sin_nombre_50-9);}.cls-25{fill:url(#Degradado_sin_nombre_2-8);}.cls-26{fill:url(#Degradado_sin_nombre_2-9);}.cls-27{fill:url(#Degradado_sin_nombre_45-5);}.cls-28{fill:url(#Degradado_sin_nombre_50-10);}.cls-29{fill:url(#Degradado_sin_nombre_2-10);}.cls-30{fill:url(#Degradado_sin_nombre_2-11);}.cls-144,.cls-145,.cls-146,.cls-147,.cls-148,.cls-149,.cls-150,.cls-151,.cls-152,.cls-153,.cls-154,.cls-155,.cls-156,.cls-157,.cls-158,.cls-159,.cls-160,.cls-161,.cls-162,.cls-163,.cls-164,.cls-165,.cls-166,.cls-167,.cls-168,.cls-169,.cls-170,.cls-171,.cls-172,.cls-173,.cls-174,.cls-175,.cls-176,.cls-177,.cls-178,.cls-179,.cls-182,.cls-183,.cls-184,.cls-185,.cls-186,.cls-187,.cls-188,.cls-189,.cls-190,.cls-191,.cls-192,.cls-193,.cls-194,.cls-195,.cls-196,.cls-197,.cls-198,.cls-199,.cls-31,.cls-32,.cls-33,.cls-34,.cls-35,.cls-36,.cls-37,.cls-38,.cls-39,.cls-40,.cls-41,.cls-42,.cls-43,.cls-44,.cls-45,.cls-46,.cls-47,.cls-48,.cls-49,.cls-50,.cls-51,.cls-52,.cls-53,.cls-54,.cls-65,.cls-66,.cls-67,.cls-69,.cls-70,.cls-71,.cls-86{mix-blend-mode:color-dodge;}.cls-31{fill:url(#radial-gradient);}.cls-32{fill:url(#radial-gradient-2);}.cls-33{fill:url(#radial-gradient-3);}.cls-34{fill:url(#radial-gradient-4);}.cls-35{fill:url(#radial-gradient-5);}.cls-36{fill:url(#radial-gradient-6);}.cls-37{fill:url(#radial-gradient-7);}.cls-38{fill:url(#radial-gradient-8);}.cls-39{fill:url(#radial-gradient-9);}.cls-40{fill:url(#radial-gradient-10);}.cls-41{fill:url(#radial-gradient-11);}.cls-42{fill:url(#radial-gradient-12);}.cls-43{fill:url(#radial-gradient-13);}.cls-44{fill:url(#radial-gradient-14);}.cls-45{fill:url(#radial-gradient-15);}.cls-46{fill:url(#radial-gradient-16);}.cls-47{fill:url(#radial-gradient-17);}.cls-48{fill:url(#radial-gradient-18);}.cls-49{fill:url(#radial-gradient-19);}.cls-50{fill:url(#radial-gradient-20);}.cls-51{fill:url(#radial-gradient-21);}.cls-52{fill:url(#radial-gradient-22);}.cls-53{fill:url(#radial-gradient-23);}.cls-54{fill:url(#radial-gradient-24);}.cls-55{fill:#fff;opacity:0.63;}.cls-56{opacity:0.8;}.cls-180,.cls-181,.cls-57,.cls-58,.cls-59,.cls-60,.cls-61,.cls-62,.cls-63,.cls-64,.cls-68,.cls-72,.cls-92{fill:none;}.cls-180,.cls-181,.cls-57,.cls-58,.cls-59,.cls-60,.cls-61,.cls-62,.cls-63,.cls-64,.cls-68,.cls-72{stroke:#fff;stroke-miterlimit:10;}.cls-57{opacity:0.4;}.cls-58{opacity:0.48;}.cls-61{opacity:0.35;}.cls-64{opacity:0.45;}.cls-65{fill:url(#radial-gradient-25);}.cls-66{fill:url(#radial-gradient-26);}.cls-67{fill:url(#radial-gradient-27);}.cls-68{opacity:0.53;}.cls-69{fill:url(#radial-gradient-28);}.cls-70{fill:url(#radial-gradient-29);}.cls-71{fill:url(#radial-gradient-30);}.cls-73{fill:url(#Degradado_sin_nombre_50-11);}.cls-74{fill:url(#Degradado_sin_nombre_50-12);}.cls-75{fill:url(#Degradado_sin_nombre_50-13);}.cls-76{fill:url(#Degradado_sin_nombre_2-12);}.cls-77{fill:url(#Degradado_sin_nombre_2-13);}.cls-78{fill:url(#Degradado_sin_nombre_2-14);}.cls-79{fill:url(#Degradado_sin_nombre_2-15);}.cls-80{fill:url(#Degradado_sin_nombre_2-16);}.cls-81{fill:url(#Degradado_sin_nombre_2-17);}.cls-82{fill:url(#Degradado_sin_nombre_2-18);}.cls-83{fill:url(#Degradado_sin_nombre_2-19);}.cls-84{fill:url(#Degradado_sin_nombre_2-20);}.cls-85{fill:url(#Degradado_sin_nombre_2-21);}.cls-86{fill:url(#radial-gradient-31);}.cls-87{fill:url(#Degradado_sin_nombre_50-14);}.cls-88{fill:url(#Degradado_sin_nombre_50-15);}.cls-89{fill:url(#Degradado_sin_nombre_50-16);}.cls-90{fill:url(#Degradado_sin_nombre_50-17);}.cls-91{fill:url(#Degradado_sin_nombre_50-18);}.cls-93{fill:url(#Degradado_sin_nombre_50-19);}.cls-94{fill:url(#Degradado_sin_nombre_2-22);}.cls-95{fill:url(#Degradado_sin_nombre_50-20);}.cls-96{fill:url(#Degradado_sin_nombre_2-23);}.cls-97{fill:url(#Degradado_sin_nombre_45-6);}.cls-98{fill:url(#Degradado_sin_nombre_2-24);}.cls-99{fill:url(#Degradado_sin_nombre_50-21);}.cls-100{fill:url(#Degradado_sin_nombre_2-25);}.cls-101{fill:url(#Degradado_sin_nombre_2-26);}.cls-102{fill:url(#Degradado_sin_nombre_2-27);}.cls-103{fill:url(#Degradado_sin_nombre_2-28);}.cls-104{fill:url(#Degradado_sin_nombre_50-22);}.cls-105{fill:url(#Degradado_sin_nombre_2-29);}.cls-106{fill:url(#Degradado_sin_nombre_2-30);}.cls-107{fill:url(#Degradado_sin_nombre_45-7);}.cls-108{fill:url(#Degradado_sin_nombre_50-23);}.cls-109{fill:url(#Degradado_sin_nombre_50-24);}.cls-110{fill:url(#Degradado_sin_nombre_2-31);}.cls-111{fill:url(#Degradado_sin_nombre_50-25);}.cls-112{fill:url(#Degradado_sin_nombre_50-26);}.cls-113{fill:url(#Degradado_sin_nombre_50-27);}.cls-114{fill:url(#Degradado_sin_nombre_45-8);}.cls-115{fill:url(#Degradado_sin_nombre_2-32);}.cls-116{fill:url(#Degradado_sin_nombre_2-33);}.cls-117{fill:url(#Degradado_sin_nombre_2-34);}.cls-118{fill:url(#Degradado_sin_nombre_2-35);}.cls-119{fill:url(#Degradado_sin_nombre_2-36);}.cls-120{fill:url(#Degradado_sin_nombre_50-28);}.cls-121{fill:url(#Degradado_sin_nombre_50-29);}.cls-122{fill:url(#Degradado_sin_nombre_50-30);}.cls-123{fill:url(#Degradado_sin_nombre_45-9);}.cls-124{fill:url(#Degradado_sin_nombre_50-31);}.cls-125{fill:url(#Degradado_sin_nombre_50-32);}.cls-126{fill:url(#Degradado_sin_nombre_2-37);}.cls-127{fill:url(#Degradado_sin_nombre_45-10);}.cls-128{fill:url(#Degradado_sin_nombre_2-38);}.cls-129{fill:url(#Degradado_sin_nombre_50-33);}.cls-130{fill:url(#Degradado_sin_nombre_50-34);}.cls-131{fill:url(#Degradado_sin_nombre_2-39);}.cls-132{fill:url(#Degradado_sin_nombre_2-40);}.cls-133{fill:url(#Degradado_sin_nombre_45-11);}.cls-134{fill:url(#Degradado_sin_nombre_50-35);}.cls-135{fill:url(#Degradado_sin_nombre_50-36);}.cls-136{fill:url(#Degradado_sin_nombre_2-41);}.cls-137{fill:url(#Degradado_sin_nombre_2-42);}.cls-138{fill:url(#Degradado_sin_nombre_50-37);}.cls-139{fill:url(#Degradado_sin_nombre_2-43);}.cls-140{fill:url(#Degradado_sin_nombre_45-12);}.cls-141{fill:url(#Degradado_sin_nombre_2-44);}.cls-142{fill:url(#Degradado_sin_nombre_50-38);}.cls-143{fill:url(#Degradado_sin_nombre_50-39);}.cls-144{fill:url(#radial-gradient-32);}.cls-145{fill:url(#radial-gradient-33);}.cls-146{fill:url(#radial-gradient-34);}.cls-147{fill:url(#radial-gradient-35);}.cls-148{fill:url(#radial-gradient-36);}.cls-149{fill:url(#radial-gradient-37);}.cls-150{fill:url(#radial-gradient-38);}.cls-151{fill:url(#radial-gradient-39);}.cls-152{fill:url(#radial-gradient-40);}.cls-153{fill:url(#radial-gradient-41);}.cls-154{fill:url(#radial-gradient-42);}.cls-155{fill:url(#radial-gradient-43);}.cls-156{fill:url(#radial-gradient-44);}.cls-157{fill:url(#radial-gradient-45);}.cls-158{fill:url(#radial-gradient-46);}.cls-159{fill:url(#radial-gradient-47);}.cls-160{fill:url(#radial-gradient-48);}.cls-161{fill:url(#radial-gradient-49);}.cls-162{fill:url(#radial-gradient-50);}.cls-163{fill:url(#radial-gradient-51);}.cls-164{fill:url(#radial-gradient-52);}.cls-165{fill:url(#radial-gradient-53);}.cls-166{fill:url(#radial-gradient-54);}.cls-167{fill:url(#radial-gradient-55);}.cls-168{fill:url(#radial-gradient-56);}.cls-169{fill:url(#radial-gradient-57);}.cls-170{fill:url(#radial-gradient-58);}.cls-171{fill:url(#radial-gradient-59);}.cls-172{fill:url(#radial-gradient-60);}.cls-173{fill:url(#radial-gradient-61);}.cls-174{fill:url(#radial-gradient-62);}.cls-175{fill:url(#radial-gradient-63);}.cls-176{fill:url(#radial-gradient-64);}.cls-177{fill:url(#radial-gradient-65);}.cls-178{fill:url(#radial-gradient-66);}.cls-179{fill:url(#radial-gradient-67);}.cls-181{opacity:0.57;}.cls-182{fill:url(#radial-gradient-68);}.cls-183{fill:url(#radial-gradient-69);}.cls-184{fill:url(#radial-gradient-70);}.cls-185{fill:url(#radial-gradient-71);}.cls-186{fill:url(#radial-gradient-72);}.cls-187{fill:url(#radial-gradient-73);}.cls-188{fill:url(#radial-gradient-74);}.cls-189{fill:url(#radial-gradient-75);}.cls-190{fill:url(#radial-gradient-76);}.cls-191{fill:url(#radial-gradient-77);}.cls-192{fill:url(#radial-gradient-78);}.cls-193{fill:url(#radial-gradient-79);}.cls-194{fill:url(#radial-gradient-80);}.cls-195{fill:url(#radial-gradient-81);}.cls-196{fill:url(#radial-gradient-82);}.cls-197{fill:url(#radial-gradient-83);}.cls-198{fill:url(#radial-gradient-84);}.cls-199{fill:url(#radial-gradient-85);}.cls-200{fill:url(#Degradado_sin_nombre_50-40);}.cls-201{fill:url(#Degradado_sin_nombre_50-41);}.cls-202{fill:url(#Degradado_sin_nombre_50-42);}.cls-203{fill:url(#Degradado_sin_nombre_50-43);}.cls-204{fill:url(#Degradado_sin_nombre_50-44);}.cls-205{fill:url(#Degradado_sin_nombre_50-45);}.cls-206{fill:url(#Degradado_sin_nombre_50-46);}</style><linearGradient id="Degradado_sin_nombre_85" x1="-2668.96" y1="613.73" x2="-1302.44" y2="1980.25" gradientTransform="matrix(0.63, 0, 0, -1, 1700.32, 1836.93)" gradientUnits="userSpaceOnUse"><stop offset="0" stop-color="#6e52ac"/><stop offset="0.06" stop-color="#614a94"/><stop offset="0.15" stop-color="#4f3f72"/><stop offset="0.25" stop-color="#403556"/><stop offset="0.36" stop-color="#342e40"/><stop offset="0.49" stop-color="#2b2931"/><stop offset="0.62" stop-color="#272628"/><stop offset="0.82" stop-color="#252525"/></linearGradient><linearGradient id="Degradado_sin_nombre_85-2" x1="-778.92" y1="611.31" x2="587.6" y2="1977.83" gradientTransform="translate(1546.32 -752.21) scale(0.63 1)" xlink:href="#Degradado_sin_nombre_85"/><linearGradient id="Degradado_sin_nombre_50" x1="-256.91" y1="1293.05" x2="-405.69" y2="1207.16" gradientTransform="matrix(-0.87, -0.5, 0.5, -0.87, 995.64, 1756.69)" gradientUnits="userSpaceOnUse"><stop offset="0" stop-color="#7f2b8a"/><stop offset="1" stop-color="#6e52ac"/></linearGradient><linearGradient id="Degradado_sin_nombre_50-2" x1="-574.89" y1="572.83" x2="-433.51" y2="572.83" gradientTransform="translate(1401.66 1523.85) rotate(180)" xlink:href="#Degradado_sin_nombre_50"/><linearGradient id="Degradado_sin_nombre_50-3" x1="-468.89" y1="635.37" x2="-327.51" y2="635.37" gradientTransform="translate(1401.66 1523.85) rotate(180)" xlink:href="#Degradado_sin_nombre_50"/><linearGradient id="Degradado_sin_nombre_45" x1="-574.89" y1="697.91" x2="-433.51" y2="697.91" gradientTransform="translate(1401.66 1523.85) rotate(180)" gradientUnits="userSpaceOnUse"><stop offset="0" stop-color="#2561a1"/><stop offset="1" stop-color="#1b225b"/></linearGradient><linearGradient id="Degradado_sin_nombre_2" x1="-468.89" y1="760.46" x2="-327.51" y2="760.46" gradientTransform="translate(1401.66 1523.85) rotate(180)" gradientUnits="userSpaceOnUse"><stop offset="0" stop-color="#cb2376"/><stop offset="1" stop-color="#da00f9"/></linearGradient><linearGradient id="Degradado_sin_nombre_2-2" x1="-574.89" y1="823" x2="-433.51" y2="823" xlink:href="#Degradado_sin_nombre_2"/><linearGradient id="Degradado_sin_nombre_2-3" x1="-468.23" y1="885.54" x2="-326.85" y2="885.54" xlink:href="#Degradado_sin_nombre_2"/><linearGradient id="Degradado_sin_nombre_2-4" x1="-362.16" y1="948.09" x2="-220.78" y2="948.09" xlink:href="#Degradado_sin_nombre_2"/><linearGradient id="Degradado_sin_nombre_2-5" x1="-468.23" y1="1010.63" x2="-326.85" y2="1010.63" xlink:href="#Degradado_sin_nombre_2"/><linearGradient id="Degradado_sin_nombre_50-4" x1="-362.16" y1="1073.17" x2="-220.78" y2="1073.17" gradientTransform="translate(1401.66 1523.85) rotate(180)" xlink:href="#Degradado_sin_nombre_50"/><linearGradient id="Degradado_sin_nombre_50-5" x1="-362.16" y1="1198.26" x2="-220.78" y2="1198.26" gradientTransform="translate(1401.66 1523.85) rotate(180)" xlink:href="#Degradado_sin_nombre_50"/><linearGradient id="Degradado_sin_nombre_50-6" x1="-468.23" y1="1135.72" x2="-326.85" y2="1135.72" gradientTransform="translate(1401.66 1523.85) rotate(180)" xlink:href="#Degradado_sin_nombre_50"/><linearGradient id="Degradado_sin_nombre_45-2" x1="-574.89" y1="1073.17" x2="-433.51" y2="1073.17" xlink:href="#Degradado_sin_nombre_45"/><linearGradient id="Degradado_sin_nombre_50-7" x1="-574.89" y1="1198.26" x2="-433.51" y2="1198.26" gradientTransform="translate(1401.66 1523.85) rotate(180)" xlink:href="#Degradado_sin_nombre_50"/><linearGradient id="Degradado_sin_nombre_45-3" x1="-574.89" y1="948.08" x2="-433.51" y2="948.08" xlink:href="#Degradado_sin_nombre_45"/><linearGradient id="Degradado_sin_nombre_50-8" x1="-97.5" y1="413.53" x2="43.88" y2="413.53" gradientTransform="translate(1401.66 1523.85) rotate(180)" xlink:href="#Degradado_sin_nombre_50"/><linearGradient id="Degradado_sin_nombre_2-6" x1="-97.5" y1="538.62" x2="43.88" y2="538.62" xlink:href="#Degradado_sin_nombre_2"/><linearGradient id="Degradado_sin_nombre_2-7" x1="-203.57" y1="476.08" x2="-62.19" y2="476.08" xlink:href="#Degradado_sin_nombre_2"/><linearGradient id="Degradado_sin_nombre_45-4" x1="-310.23" y1="413.53" x2="-168.85" y2="413.53" xlink:href="#Degradado_sin_nombre_45"/><linearGradient id="Degradado_sin_nombre_50-9" x1="-310.23" y1="538.62" x2="-168.85" y2="538.62" gradientTransform="translate(1401.66 1523.85) rotate(180)" xlink:href="#Degradado_sin_nombre_50"/><linearGradient id="Degradado_sin_nombre_2-8" x1="-106.45" y1="1190.51" x2="34.93" y2="1190.51" xlink:href="#Degradado_sin_nombre_2"/><linearGradient id="Degradado_sin_nombre_2-9" x1="-213.11" y1="1253.06" x2="-71.73" y2="1253.06" xlink:href="#Degradado_sin_nombre_2"/><linearGradient id="Degradado_sin_nombre_45-5" x1="-106.45" y1="1315.6" x2="34.93" y2="1315.6" xlink:href="#Degradado_sin_nombre_45"/><linearGradient id="Degradado_sin_nombre_50-10" x1="-106.45" y1="1440.68" x2="34.93" y2="1440.68" gradientTransform="translate(1401.66 1523.85) rotate(180)" xlink:href="#Degradado_sin_nombre_50"/><linearGradient id="Degradado_sin_nombre_2-10" x1="-212.48" y1="1503.23" x2="-71.1" y2="1503.23" xlink:href="#Degradado_sin_nombre_2"/><linearGradient id="Degradado_sin_nombre_2-11" x1="-106.45" y1="1565.77" x2="34.93" y2="1565.77" xlink:href="#Degradado_sin_nombre_2"/><radialGradient id="radial-gradient" cx="3048.88" cy="878.19" r="13.36" gradientTransform="matrix(1.11, 0, 0, -1.14, -1681.99, 1323.92)" gradientUnits="userSpaceOnUse"><stop offset="0" stop-color="#fff"/><stop offset="0.29" stop-color="#a6a6a6"/><stop offset="0.54" stop-color="#5f5f5f"/><stop offset="0.75" stop-color="#2b2b2b"/><stop offset="0.91" stop-color="#0c0c0c"/><stop offset="1"/></radialGradient><radialGradient id="radial-gradient-2" cx="2952.15" cy="852.13" r="5.42" xlink:href="#radial-gradient"/><radialGradient id="radial-gradient-3" cx="2745.14" cy="296.79" r="5.42" xlink:href="#radial-gradient"/><radialGradient id="radial-gradient-4" cx="3043.67" cy="327.81" r="5.42" xlink:href="#radial-gradient"/><radialGradient id="radial-gradient-5" cx="3137.34" cy="473.16" r="5.42" xlink:href="#radial-gradient"/><radialGradient id="radial-gradient-6" cx="3064.97" cy="266.33" r="5.42" xlink:href="#radial-gradient"/><radialGradient id="radial-gradient-7" cx="2375.23" cy="-365.55" r="5.12" gradientTransform="matrix(0.93, -0.63, -0.61, -0.95, -1094.03, 1968.89)" xlink:href="#radial-gradient"/><radialGradient id="radial-gradient-8" cx="2516.84" cy="-200.87" r="5.12" gradientTransform="matrix(0.93, -0.63, -0.61, -0.95, -1094.03, 1968.89)" xlink:href="#radial-gradient"/><radialGradient id="radial-gradient-9" cx="2678.62" cy="-29.3" r="5.12" gradientTransform="matrix(0.93, -0.63, -0.61, -0.95, -1094.03, 1968.89)" xlink:href="#radial-gradient"/><radialGradient id="radial-gradient-10" cx="2483.38" cy="-339.48" r="5.42" gradientTransform="matrix(0.93, -0.63, -0.61, -0.95, -1094.03, 1968.89)" xlink:href="#radial-gradient"/><radialGradient id="radial-gradient-11" cx="2836.71" cy="-289.3" r="5.42" gradientTransform="matrix(0.93, -0.63, -0.61, -0.95, -1094.03, 1968.89)" xlink:href="#radial-gradient"/><radialGradient id="radial-gradient-12" cx="3109.3" cy="725.06" r="9.39" xlink:href="#radial-gradient"/><radialGradient id="radial-gradient-13" cx="2884.71" cy="336.5" r="9.39" xlink:href="#radial-gradient"/><radialGradient id="radial-gradient-14" cx="3074.03" cy="558.98" r="9.39" xlink:href="#radial-gradient"/><radialGradient id="radial-gradient-15" cx="2865.14" cy="845.85" r="9.39" xlink:href="#radial-gradient"/><radialGradient id="radial-gradient-16" cx="2844.68" cy="279.03" r="9.39" xlink:href="#radial-gradient"/><radialGradient id="radial-gradient-17" cx="2770.56" cy="740.92" r="5.42" xlink:href="#radial-gradient"/><radialGradient id="radial-gradient-18" cx="2785.63" cy="778.02" r="5.42" xlink:href="#radial-gradient"/><radialGradient id="radial-gradient-19" cx="2771.72" cy="788.45" r="5.42" xlink:href="#radial-gradient"/><radialGradient id="radial-gradient-20" cx="2731.9" cy="763.52" r="22.39" xlink:href="#radial-gradient"/><radialGradient id="radial-gradient-21" cx="1489.67" cy="305.8" r="5.42" gradientTransform="matrix(-1.11, 0, 0, 1.14, 3543.57, 284.98)" xlink:href="#radial-gradient"/><radialGradient id="radial-gradient-22" cx="1504.74" cy="342.89" r="5.42" gradientTransform="matrix(-1.11, 0, 0, 1.14, 3543.57, 284.98)" xlink:href="#radial-gradient"/><radialGradient id="radial-gradient-23" cx="1490.83" cy="353.33" r="5.42" gradientTransform="matrix(-1.11, 0, 0, 1.14, 3543.57, 284.98)" xlink:href="#radial-gradient"/><radialGradient id="radial-gradient-24" cx="1451" cy="328.4" r="22.39" gradientTransform="matrix(-1.11, 0, 0, 1.14, 3543.57, 284.98)" xlink:href="#radial-gradient"/><radialGradient id="radial-gradient-25" cx="-907.22" cy="288.78" r="13.99" gradientTransform="translate(837.3 1323.92) rotate(180) scale(1.11 1.14)" xlink:href="#radial-gradient"/><radialGradient id="radial-gradient-26" cx="-775.1" cy="1033.33" r="13.99" gradientTransform="translate(837.3 1323.92) rotate(180) scale(1.11 1.14)" xlink:href="#radial-gradient"/><radialGradient id="radial-gradient-27" cx="421.89" cy="266.33" r="13.99" gradientTransform="translate(837.3 1323.92) rotate(180) scale(1.11 1.14)" xlink:href="#radial-gradient"/><radialGradient id="radial-gradient-28" cx="-918.47" cy="915.84" r="13.99" gradientTransform="translate(837.3 1323.92) rotate(180) scale(1.11 1.14)" xlink:href="#radial-gradient"/><radialGradient id="radial-gradient-29" cx="-918.47" cy="770.49" r="13.99" gradientTransform="translate(837.3 1323.92) rotate(180) scale(1.11 1.14)" xlink:href="#radial-gradient"/><radialGradient id="radial-gradient-30" cx="-770.93" cy="438.06" r="13.99" gradientTransform="translate(837.3 1323.92) rotate(180) scale(1.11 1.14)" xlink:href="#radial-gradient"/><linearGradient id="Degradado_sin_nombre_50-11" x1="1615.1" y1="-257.59" x2="1355.95" y2="-407.21" gradientTransform="matrix(0.87, 0.5, -0.5, 0.87, 555.74, -176.23)" xlink:href="#Degradado_sin_nombre_50"/><linearGradient id="Degradado_sin_nombre_50-12" x1="281.81" y1="1236.22" x2="133.04" y2="1150.33" xlink:href="#Degradado_sin_nombre_50"/><linearGradient id="Degradado_sin_nombre_50-13" x1="-83.8" y1="983.62" x2="-232.58" y2="897.72" xlink:href="#Degradado_sin_nombre_50"/><linearGradient id="Degradado_sin_nombre_2-12" x1="106.28" y1="1565.77" x2="247.66" y2="1565.77" xlink:href="#Degradado_sin_nombre_2"/><linearGradient id="Degradado_sin_nombre_2-13" x1="174.9" y1="543.2" x2="316.28" y2="543.2" xlink:href="#Degradado_sin_nombre_2"/><linearGradient id="Degradado_sin_nombre_2-14" x1="68.24" y1="605.74" x2="209.62" y2="605.74" xlink:href="#Degradado_sin_nombre_2"/><linearGradient id="Degradado_sin_nombre_2-15" x1="280.9" y1="730.83" x2="422.28" y2="730.83" xlink:href="#Degradado_sin_nombre_2"/><linearGradient id="Degradado_sin_nombre_2-16" x1="174.9" y1="793.37" x2="316.28" y2="793.37" xlink:href="#Degradado_sin_nombre_2"/><linearGradient id="Degradado_sin_nombre_2-17" x1="281.56" y1="855.91" x2="422.94" y2="855.91" xlink:href="#Degradado_sin_nombre_2"/><linearGradient id="Degradado_sin_nombre_2-18" x1="281.56" y1="1106.09" x2="422.94" y2="1106.09" xlink:href="#Degradado_sin_nombre_2"/><linearGradient id="Degradado_sin_nombre_2-19" x1="174.9" y1="918.45" x2="316.28" y2="918.45" xlink:href="#Degradado_sin_nombre_2"/><linearGradient id="Degradado_sin_nombre_2-20" x1="-0.45" y1="1378.14" x2="140.94" y2="1378.14" xlink:href="#Degradado_sin_nombre_2"/><linearGradient id="Degradado_sin_nombre_2-21" x1="141.63" y1="1503.23" x2="212.32" y2="1503.23" xlink:href="#Degradado_sin_nombre_2"/><radialGradient id="radial-gradient-31" cx="-679.41" cy="1027.75" r="13.99" gradientTransform="translate(837.3 1323.92) rotate(180) scale(1.11 1.14)" xlink:href="#radial-gradient"/><linearGradient id="Degradado_sin_nombre_50-14" x1="430.11" y1="782.6" x2="170.96" y2="632.98" xlink:href="#Degradado_sin_nombre_50"/><linearGradient id="Degradado_sin_nombre_50-15" x1="1893.89" y1="-722.69" x2="1634.75" y2="-872.31" gradientTransform="matrix(0.87, 0.5, -0.5, 0.87, -798.52, 163.7)" xlink:href="#Degradado_sin_nombre_50"/><linearGradient id="Degradado_sin_nombre_50-16" x1="267.98" y1="1248.25" x2="124.37" y2="1165.34" xlink:href="#Degradado_sin_nombre_50"/><linearGradient id="Degradado_sin_nombre_50-17" x1="541.01" y1="639.9" x2="392.24" y2="554.01" xlink:href="#Degradado_sin_nombre_50"/><linearGradient id="Degradado_sin_nombre_50-18" x1="480.18" y1="1314.71" x2="336.57" y2="1231.79" xlink:href="#Degradado_sin_nombre_50"/><linearGradient id="Degradado_sin_nombre_50-19" x1="624.67" y1="894.11" x2="475.9" y2="808.21" xlink:href="#Degradado_sin_nombre_50"/><linearGradient id="Degradado_sin_nombre_2-22" x1="1137.82" y1="638.5" x2="1279.2" y2="638.5" xlink:href="#Degradado_sin_nombre_2"/><linearGradient id="Degradado_sin_nombre_50-20" x1="1243.83" y1="701.05" x2="1385.21" y2="701.05" gradientTransform="translate(1401.66 1523.85) rotate(180)" xlink:href="#Degradado_sin_nombre_50"/><linearGradient id="Degradado_sin_nombre_2-23" x1="1031.16" y1="701.05" x2="1172.54" y2="701.05" xlink:href="#Degradado_sin_nombre_2"/><linearGradient id="Degradado_sin_nombre_45-6" x1="1137.82" y1="763.59" x2="1279.2" y2="763.59" xlink:href="#Degradado_sin_nombre_45"/><linearGradient id="Degradado_sin_nombre_2-24" x1="1243.83" y1="826.13" x2="1385.21" y2="826.13" xlink:href="#Degradado_sin_nombre_2"/><linearGradient id="Degradado_sin_nombre_50-21" x1="1350.56" y1="888.68" x2="1491.94" y2="888.68" gradientTransform="translate(1401.66 1523.85) rotate(180)" xlink:href="#Degradado_sin_nombre_50"/><linearGradient id="Degradado_sin_nombre_2-25" x1="1137.82" y1="888.68" x2="1279.2" y2="888.68" xlink:href="#Degradado_sin_nombre_2"/><linearGradient id="Degradado_sin_nombre_2-26" x1="1244.48" y1="951.22" x2="1385.86" y2="951.22" xlink:href="#Degradado_sin_nombre_2"/><linearGradient id="Degradado_sin_nombre_2-27" x1="1350.56" y1="1013.76" x2="1491.94" y2="1013.76" xlink:href="#Degradado_sin_nombre_2"/><linearGradient id="Degradado_sin_nombre_2-28" x1="1244.48" y1="1076.31" x2="1385.86" y2="1076.31" xlink:href="#Degradado_sin_nombre_2"/><linearGradient id="Degradado_sin_nombre_50-22" x1="1350.56" y1="1138.85" x2="1491.94" y2="1138.85" gradientTransform="translate(1401.66 1523.85) rotate(180)" xlink:href="#Degradado_sin_nombre_50"/><linearGradient id="Degradado_sin_nombre_2-29" x1="1350.56" y1="1263.93" x2="1491.94" y2="1263.93" xlink:href="#Degradado_sin_nombre_2"/><linearGradient id="Degradado_sin_nombre_2-30" x1="1244.48" y1="1201.39" x2="1385.86" y2="1201.39" xlink:href="#Degradado_sin_nombre_2"/><linearGradient id="Degradado_sin_nombre_45-7" x1="1137.82" y1="1138.85" x2="1279.2" y2="1138.85" xlink:href="#Degradado_sin_nombre_45"/><linearGradient id="Degradado_sin_nombre_50-23" x1="1137.82" y1="1263.93" x2="1279.2" y2="1263.93" gradientTransform="translate(1401.66 1523.85) rotate(180)" xlink:href="#Degradado_sin_nombre_50"/><linearGradient id="Degradado_sin_nombre_50-24" x1="1031.79" y1="1076.3" x2="1173.17" y2="1076.3" gradientTransform="translate(1401.66 1523.85) rotate(180)" xlink:href="#Degradado_sin_nombre_50"/><linearGradient id="Degradado_sin_nombre_2-31" x1="1137.82" y1="1013.76" x2="1279.2" y2="1013.76" xlink:href="#Degradado_sin_nombre_2"/><linearGradient id="Degradado_sin_nombre_50-25" x1="388.03" y1="668.13" x2="529.41" y2="668.13" gradientTransform="translate(1401.66 1523.85) rotate(180)" xlink:href="#Degradado_sin_nombre_50"/><linearGradient id="Degradado_sin_nombre_50-26" x1="494.04" y1="730.68" x2="635.42" y2="730.68" gradientTransform="translate(1401.66 1523.85) rotate(180)" xlink:href="#Degradado_sin_nombre_50"/><linearGradient id="Degradado_sin_nombre_50-27" x1="281.37" y1="730.68" x2="422.75" y2="730.68" gradientTransform="translate(1401.66 1523.85) rotate(180)" xlink:href="#Degradado_sin_nombre_50"/><linearGradient id="Degradado_sin_nombre_45-8" x1="388.03" y1="793.22" x2="529.41" y2="793.22" xlink:href="#Degradado_sin_nombre_45"/><linearGradient id="Degradado_sin_nombre_2-32" x1="494.04" y1="855.76" x2="635.42" y2="855.76" xlink:href="#Degradado_sin_nombre_2"/><linearGradient id="Degradado_sin_nombre_2-33" x1="388.03" y1="918.31" x2="529.41" y2="918.31" xlink:href="#Degradado_sin_nombre_2"/><linearGradient id="Degradado_sin_nombre_2-34" x1="494.69" y1="980.85" x2="636.07" y2="980.85" xlink:href="#Degradado_sin_nombre_2"/><linearGradient id="Degradado_sin_nombre_2-35" x1="600.77" y1="1043.39" x2="742.15" y2="1043.39" xlink:href="#Degradado_sin_nombre_2"/><linearGradient id="Degradado_sin_nombre_2-36" x1="494.69" y1="1105.94" x2="636.07" y2="1105.94" xlink:href="#Degradado_sin_nombre_2"/><linearGradient id="Degradado_sin_nombre_50-28" x1="600.77" y1="1168.48" x2="742.15" y2="1168.48" gradientTransform="translate(1401.66 1523.85) rotate(180)" xlink:href="#Degradado_sin_nombre_50"/><linearGradient id="Degradado_sin_nombre_50-29" x1="600.77" y1="1293.56" x2="742.15" y2="1293.56" gradientTransform="translate(1401.66 1523.85) rotate(180)" xlink:href="#Degradado_sin_nombre_50"/><linearGradient id="Degradado_sin_nombre_50-30" x1="494.69" y1="1231.02" x2="636.07" y2="1231.02" gradientTransform="translate(1401.66 1523.85) rotate(180)" xlink:href="#Degradado_sin_nombre_50"/><linearGradient id="Degradado_sin_nombre_45-9" x1="388.03" y1="1168.48" x2="529.41" y2="1168.48" xlink:href="#Degradado_sin_nombre_45"/><linearGradient id="Degradado_sin_nombre_50-31" x1="388.03" y1="1293.56" x2="529.41" y2="1293.56" gradientTransform="translate(1401.66 1523.85) rotate(180)" xlink:href="#Degradado_sin_nombre_50"/><linearGradient id="Degradado_sin_nombre_50-32" x1="282" y1="1105.93" x2="423.38" y2="1105.93" gradientTransform="translate(1401.66 1523.85) rotate(180)" xlink:href="#Degradado_sin_nombre_50"/><linearGradient id="Degradado_sin_nombre_2-37" x1="282" y1="980.85" x2="423.38" y2="980.85" xlink:href="#Degradado_sin_nombre_2"/><linearGradient id="Degradado_sin_nombre_45-10" x1="388.03" y1="1043.39" x2="529.41" y2="1043.39" xlink:href="#Degradado_sin_nombre_45"/><linearGradient id="Degradado_sin_nombre_2-38" x1="865.43" y1="383.75" x2="1006.81" y2="383.75" xlink:href="#Degradado_sin_nombre_2"/><linearGradient id="Degradado_sin_nombre_50-33" x1="759.35" y1="446.3" x2="900.73" y2="446.3" gradientTransform="translate(1401.66 1523.85) rotate(180)" xlink:href="#Degradado_sin_nombre_50"/><linearGradient id="Degradado_sin_nombre_50-34" x1="865.43" y1="508.84" x2="1006.81" y2="508.84" gradientTransform="translate(1401.66 1523.85) rotate(180)" xlink:href="#Degradado_sin_nombre_50"/><linearGradient id="Degradado_sin_nombre_2-39" x1="865.43" y1="633.92" x2="1006.81" y2="633.92" xlink:href="#Degradado_sin_nombre_2"/><linearGradient id="Degradado_sin_nombre_2-40" x1="759.35" y1="571.38" x2="900.73" y2="571.38" xlink:href="#Degradado_sin_nombre_2"/><linearGradient id="Degradado_sin_nombre_45-11" x1="652.69" y1="508.84" x2="794.07" y2="508.84" xlink:href="#Degradado_sin_nombre_45"/><linearGradient id="Degradado_sin_nombre_50-35" x1="652.69" y1="633.92" x2="794.07" y2="633.92" gradientTransform="translate(1401.66 1523.85) rotate(180)" xlink:href="#Degradado_sin_nombre_50"/><linearGradient id="Degradado_sin_nombre_50-36" x1="546.66" y1="446.29" x2="688.04" y2="446.29" gradientTransform="translate(1401.66 1523.85) rotate(180)" xlink:href="#Degradado_sin_nombre_50"/><linearGradient id="Degradado_sin_nombre_2-41" x1="652.69" y1="383.75" x2="794.07" y2="383.75" xlink:href="#Degradado_sin_nombre_2"/><linearGradient id="Degradado_sin_nombre_2-42" x1="856.47" y1="1285.82" x2="997.85" y2="1285.82" xlink:href="#Degradado_sin_nombre_2"/><linearGradient id="Degradado_sin_nombre_50-37" x1="962.48" y1="1348.36" x2="1103.86" y2="1348.36" gradientTransform="translate(1401.66 1523.85) rotate(180)" xlink:href="#Degradado_sin_nombre_50"/><linearGradient id="Degradado_sin_nombre_2-43" x1="749.81" y1="1348.36" x2="891.19" y2="1348.36" xlink:href="#Degradado_sin_nombre_2"/><linearGradient id="Degradado_sin_nombre_45-12" x1="856.47" y1="1410.9" x2="997.85" y2="1410.9" xlink:href="#Degradado_sin_nombre_45"/><linearGradient id="Degradado_sin_nombre_2-44" x1="962.48" y1="1473.45" x2="1103.86" y2="1473.45" xlink:href="#Degradado_sin_nombre_2"/><linearGradient id="Degradado_sin_nombre_50-38" x1="1069.21" y1="1535.99" x2="1210.59" y2="1535.99" gradientTransform="translate(1401.66 1523.85) rotate(180)" xlink:href="#Degradado_sin_nombre_50"/><linearGradient id="Degradado_sin_nombre_50-39" x1="856.47" y1="1535.99" x2="997.85" y2="1535.99" gradientTransform="translate(1401.66 1523.85) rotate(180)" xlink:href="#Degradado_sin_nombre_50"/><radialGradient id="radial-gradient-32" cx="2183.52" cy="962.03" r="13.36" xlink:href="#radial-gradient"/><radialGradient id="radial-gradient-33" cx="2086.78" cy="935.97" r="5.42" xlink:href="#radial-gradient"/><radialGradient id="radial-gradient-34" cx="1879.78" cy="380.62" r="5.42" xlink:href="#radial-gradient"/><radialGradient id="radial-gradient-35" cx="2178.3" cy="411.64" r="5.42" xlink:href="#radial-gradient"/><radialGradient id="radial-gradient-36" cx="2271.97" cy="557" r="5.42" xlink:href="#radial-gradient"/><radialGradient id="radial-gradient-37" cx="2199.61" cy="350.16" r="5.42" xlink:href="#radial-gradient"/><radialGradient id="radial-gradient-38" cx="1700.31" cy="182.56" r="5.12" gradientTransform="matrix(0.93, -0.63, -0.61, -0.95, -1094.03, 1968.89)" xlink:href="#radial-gradient"/><radialGradient id="radial-gradient-39" cx="1674.91" cy="499.75" r="5.12" gradientTransform="matrix(0.93, -0.63, -0.61, -0.95, -1094.03, 1968.89)" xlink:href="#radial-gradient"/><radialGradient id="radial-gradient-40" cx="1772.51" cy="541.72" r="5.12" gradientTransform="matrix(0.93, -0.63, -0.61, -0.95, -1094.03, 1968.89)" xlink:href="#radial-gradient"/><radialGradient id="radial-gradient-41" cx="1841.91" cy="347.25" r="5.12" gradientTransform="matrix(0.93, -0.63, -0.61, -0.95, -1094.03, 1968.89)" xlink:href="#radial-gradient"/><radialGradient id="radial-gradient-42" cx="2003.69" cy="518.81" r="5.12" gradientTransform="matrix(0.93, -0.63, -0.61, -0.95, -1094.03, 1968.89)" xlink:href="#radial-gradient"/><radialGradient id="radial-gradient-43" cx="2221.52" cy="-118.21" r="5.12" gradientTransform="matrix(0.93, -0.63, -0.61, -0.95, -1094.03, 1968.89)" xlink:href="#radial-gradient"/><radialGradient id="radial-gradient-44" cx="1639.82" cy="695.35" r="5.42" gradientTransform="matrix(0.93, -0.63, -0.61, -0.95, -1094.03, 1968.89)" xlink:href="#radial-gradient"/><radialGradient id="radial-gradient-45" cx="1588.26" cy="383.94" r="5.42" gradientTransform="matrix(0.93, -0.63, -0.61, -0.95, -1094.03, 1968.89)" xlink:href="#radial-gradient"/><radialGradient id="radial-gradient-46" cx="1808.46" cy="208.63" r="5.42" gradientTransform="matrix(0.93, -0.63, -0.61, -0.95, -1094.03, 1968.89)" xlink:href="#radial-gradient"/><radialGradient id="radial-gradient-47" cx="2161.79" cy="258.82" r="5.42" gradientTransform="matrix(0.93, -0.63, -0.61, -0.95, -1094.03, 1968.89)" xlink:href="#radial-gradient"/><radialGradient id="radial-gradient-48" cx="1506.5" cy="964.03" r="18.78" xlink:href="#radial-gradient"/><radialGradient id="radial-gradient-49" cx="1721.73" cy="956.38" r="18.78" xlink:href="#radial-gradient"/><radialGradient id="radial-gradient-50" cx="1525.78" cy="364.91" r="18.78" xlink:href="#radial-gradient"/><radialGradient id="radial-gradient-51" cx="2243.93" cy="808.89" r="9.39" xlink:href="#radial-gradient"/><radialGradient id="radial-gradient-52" cx="2019.34" cy="420.34" r="9.39" xlink:href="#radial-gradient"/><radialGradient id="radial-gradient-53" cx="2208.67" cy="642.81" r="9.39" xlink:href="#radial-gradient"/><radialGradient id="radial-gradient-54" cx="1999.78" cy="929.69" r="9.39" xlink:href="#radial-gradient"/><radialGradient id="radial-gradient-55" cx="1979.31" cy="362.87" r="9.39" xlink:href="#radial-gradient"/><radialGradient id="radial-gradient-56" cx="1905.2" cy="824.76" r="5.42" xlink:href="#radial-gradient"/><radialGradient id="radial-gradient-57" cx="1920.27" cy="861.85" r="5.42" xlink:href="#radial-gradient"/><radialGradient id="radial-gradient-58" cx="1906.35" cy="872.29" r="5.42" xlink:href="#radial-gradient"/><radialGradient id="radial-gradient-59" cx="1866.53" cy="847.36" r="22.39" xlink:href="#radial-gradient"/><radialGradient id="radial-gradient-60" cx="1769.59" cy="202.87" r="5.42" gradientTransform="matrix(-0.84, 0.75, 0.73, 0.85, 1384.45, -984.46)" xlink:href="#radial-gradient"/><radialGradient id="radial-gradient-61" cx="1784.66" cy="239.97" r="5.42" gradientTransform="matrix(-0.84, 0.75, 0.73, 0.85, 1384.45, -984.46)" xlink:href="#radial-gradient"/><radialGradient id="radial-gradient-62" cx="1770.75" cy="250.4" r="5.42" gradientTransform="matrix(-0.84, 0.75, 0.73, 0.85, 1384.45, -984.46)" xlink:href="#radial-gradient"/><radialGradient id="radial-gradient-63" cx="1730.93" cy="225.48" r="22.39" gradientTransform="matrix(-0.84, 0.75, 0.73, 0.85, 1384.45, -984.46)" xlink:href="#radial-gradient"/><radialGradient id="radial-gradient-64" cx="2355.04" cy="221.96" r="5.42" gradientTransform="matrix(-1.11, 0, 0, 1.14, 3543.57, 284.98)" xlink:href="#radial-gradient"/><radialGradient id="radial-gradient-65" cx="2370.11" cy="259.06" r="5.42" gradientTransform="matrix(-1.11, 0, 0, 1.14, 3543.57, 284.98)" xlink:href="#radial-gradient"/><radialGradient id="radial-gradient-66" cx="2356.2" cy="269.49" r="5.42" gradientTransform="matrix(-1.11, 0, 0, 1.14, 3543.57, 284.98)" xlink:href="#radial-gradient"/><radialGradient id="radial-gradient-67" cx="2316.37" cy="244.57" r="22.39" gradientTransform="matrix(-1.11, 0, 0, 1.14, 3543.57, 284.98)" xlink:href="#radial-gradient"/><radialGradient id="radial-gradient-68" cx="686.23" cy="456.98" r="13.99" gradientTransform="translate(837.3 1323.92) rotate(180) scale(1.11 1.14)" xlink:href="#radial-gradient"/><radialGradient id="radial-gradient-69" cx="686.23" cy="311.63" r="13.99" gradientTransform="translate(837.3 1323.92) rotate(180) scale(1.11 1.14)" xlink:href="#radial-gradient"/><radialGradient id="radial-gradient-70" cx="539" cy="493.32" r="13.99" gradientTransform="translate(837.3 1323.92) rotate(180) scale(1.11 1.14)" xlink:href="#radial-gradient"/><radialGradient id="radial-gradient-71" cx="284.71" cy="855.37" r="13.99" gradientTransform="translate(837.3 1323.92) rotate(180) scale(1.11 1.14)" xlink:href="#radial-gradient"/><radialGradient id="radial-gradient-72" cx="686.23" cy="1036.32" r="13.99" gradientTransform="translate(837.3 1323.92) rotate(180) scale(1.11 1.14)" xlink:href="#radial-gradient"/><radialGradient id="radial-gradient-73" cx="686.23" cy="890.97" r="13.99" gradientTransform="translate(837.3 1323.92) rotate(180) scale(1.11 1.14)" xlink:href="#radial-gradient"/><radialGradient id="radial-gradient-74" cx="539" cy="1072.66" r="13.99" gradientTransform="translate(837.3 1323.92) rotate(180) scale(1.11 1.14)" xlink:href="#radial-gradient"/><radialGradient id="radial-gradient-75" cx="539" cy="781.95" r="13.99" gradientTransform="translate(837.3 1323.92) rotate(180) scale(1.11 1.14)" xlink:href="#radial-gradient"/><radialGradient id="radial-gradient-76" cx="142.9" cy="1059.68" r="13.99" gradientTransform="translate(837.3 1323.92) rotate(180) scale(1.11 1.14)" xlink:href="#radial-gradient"/><radialGradient id="radial-gradient-77" cx="77.05" cy="1050.21" r="13.99" gradientTransform="translate(837.3 1323.92) rotate(180) scale(1.11 1.14)" xlink:href="#radial-gradient"/><radialGradient id="radial-gradient-78" cx="-41.85" cy="372.61" r="13.99" gradientTransform="translate(837.3 1323.92) rotate(180) scale(1.11 1.14)" xlink:href="#radial-gradient"/><radialGradient id="radial-gradient-79" cx="-41.85" cy="227.26" r="13.99" gradientTransform="translate(837.3 1323.92) rotate(180) scale(1.11 1.14)" xlink:href="#radial-gradient"/><radialGradient id="radial-gradient-80" cx="-189.09" cy="408.95" r="13.99" gradientTransform="translate(837.3 1323.92) rotate(180) scale(1.11 1.14)" xlink:href="#radial-gradient"/><radialGradient id="radial-gradient-81" cx="-348.82" cy="952.2" r="13.99" gradientTransform="translate(837.3 1323.92) rotate(180) scale(1.11 1.14)" xlink:href="#radial-gradient"/><radialGradient id="radial-gradient-82" cx="-53.1" cy="999.68" r="13.99" gradientTransform="translate(837.3 1323.92) rotate(180) scale(1.11 1.14)" xlink:href="#radial-gradient"/><radialGradient id="radial-gradient-83" cx="-53.1" cy="854.32" r="13.99" gradientTransform="translate(837.3 1323.92) rotate(180) scale(1.11 1.14)" xlink:href="#radial-gradient"/><radialGradient id="radial-gradient-84" cx="-200.33" cy="1036.02" r="13.99" gradientTransform="translate(837.3 1323.92) rotate(180) scale(1.11 1.14)" xlink:href="#radial-gradient"/><radialGradient id="radial-gradient-85" cx="-200.33" cy="745.31" r="13.99" gradientTransform="translate(837.3 1323.92) rotate(180) scale(1.11 1.14)" xlink:href="#radial-gradient"/><linearGradient id="Degradado_sin_nombre_50-40" x1="733.51" y1="141.36" x2="474.36" y2="-8.26" gradientTransform="matrix(0.87, 0.5, -0.5, 0.87, 555.74, -176.23)" xlink:href="#Degradado_sin_nombre_50"/><linearGradient id="Degradado_sin_nombre_50-41" x1="1311.7" y1="383.65" x2="1052.55" y2="234.03" xlink:href="#Degradado_sin_nombre_50"/><linearGradient id="Degradado_sin_nombre_50-42" x1="1012.31" y1="-323.74" x2="753.16" y2="-473.36" gradientTransform="matrix(0.87, 0.5, -0.5, 0.87, -798.52, 163.7)" xlink:href="#Degradado_sin_nombre_50"/><linearGradient id="Degradado_sin_nombre_50-43" x1="1163.4" y1="837.28" x2="1014.62" y2="751.38" xlink:href="#Degradado_sin_nombre_50"/><linearGradient id="Degradado_sin_nombre_50-44" x1="1422.6" y1="240.96" x2="1273.82" y2="155.06" xlink:href="#Degradado_sin_nombre_50"/><linearGradient id="Degradado_sin_nombre_50-45" x1="1375.6" y1="903.73" x2="1226.83" y2="817.83" xlink:href="#Degradado_sin_nombre_50"/><linearGradient id="Degradado_sin_nombre_50-46" x1="797.79" y1="584.67" x2="649.01" y2="498.78" xlink:href="#Degradado_sin_nombre_50"/></defs><g class="cls-1"><g id="Capa_3" data-name="Capa 3"><rect class="cls-2" x="-80.38" y="-0.11" width="1046.66" height="1080.11"/><rect class="cls-3" x="962.42" y="2.31" width="1046.66" height="1080.11" transform="translate(2971.5 1084.72) rotate(-180)"/></g><g id="Capa_2" data-name="Capa 2"><polygon class="cls-4" points="1971.4 703.74 2004.41 691.57 1843.8 975.76 1810.79 987.93 1971.4 703.74"/><g class="cls-5"><polygon class="cls-6" points="1870.52 1013.57 1941.21 1013.57 1976.56 951.03 1941.21 888.48 1870.52 888.48 1835.18 951.03 1870.52 1013.57"/><polygon class="cls-7" points="1764.52 951.03 1835.2 951.03 1870.55 888.48 1835.2 825.94 1764.52 825.94 1729.17 888.48 1764.52 951.03"/><polygon class="cls-8" points="1870.52 888.48 1941.21 888.48 1976.56 825.94 1941.21 763.4 1870.52 763.4 1835.18 825.94 1870.52 888.48"/><polygon class="cls-9" points="1764.52 825.94 1835.2 825.94 1870.55 763.4 1835.2 700.85 1764.52 700.85 1729.17 763.4 1764.52 825.94"/><polygon class="cls-10" points="1870.52 763.4 1941.21 763.4 1976.56 700.85 1941.21 638.31 1870.52 638.31 1835.18 700.85 1870.52 763.4"/><polygon class="cls-11" points="1763.86 700.85 1834.55 700.85 1869.9 638.31 1834.55 575.77 1763.86 575.77 1728.52 638.31 1763.86 700.85"/><polygon class="cls-12" points="1657.79 638.31 1728.48 638.31 1763.82 575.77 1728.48 513.23 1657.79 513.23 1622.44 575.77 1657.79 638.31"/><polygon class="cls-13" points="1763.86 575.77 1834.55 575.77 1869.9 513.23 1834.55 450.68 1763.86 450.68 1728.52 513.23 1763.86 575.77"/><polygon class="cls-14" points="1657.79 513.23 1728.48 513.23 1763.82 450.68 1728.48 388.14 1657.79 388.14 1622.44 450.68 1657.79 513.23"/><polygon class="cls-15" points="1657.79 388.14 1728.48 388.14 1763.82 325.6 1728.48 263.05 1657.79 263.05 1622.44 325.6 1657.79 388.14"/><polygon class="cls-16" points="1763.86 450.68 1834.55 450.68 1869.9 388.14 1834.55 325.6 1763.86 325.6 1728.52 388.14 1763.86 450.68"/><polygon class="cls-17" points="1870.52 513.23 1941.21 513.23 1976.56 450.68 1941.21 388.14 1870.52 388.14 1835.18 450.68 1870.52 513.23"/><polygon class="cls-18" points="1870.52 388.14 1941.21 388.14 1976.56 325.6 1941.21 263.05 1870.52 263.05 1835.18 325.6 1870.52 388.14"/><polygon class="cls-19" points="1870.52 638.31 1941.21 638.31 1976.56 575.77 1941.21 513.23 1870.52 513.23 1835.18 575.77 1870.52 638.31"/></g><g class="cls-5"><polygon class="cls-20" points="1393.13 1172.86 1463.82 1172.86 1499.16 1110.32 1463.82 1047.78 1393.13 1047.78 1357.78 1110.32 1393.13 1172.86"/><polygon class="cls-21" points="1393.13 1047.78 1463.82 1047.78 1499.16 985.24 1463.82 922.69 1393.13 922.69 1357.78 985.24 1393.13 1047.78"/><polygon class="cls-22" points="1499.2 1110.32 1569.89 1110.32 1605.24 1047.78 1569.89 985.24 1499.2 985.24 1463.86 1047.78 1499.2 1110.32"/><polygon class="cls-23" points="1605.86 1172.86 1676.55 1172.86 1711.9 1110.32 1676.55 1047.78 1605.86 1047.78 1570.52 1110.32 1605.86 1172.86"/><polygon class="cls-24" points="1605.86 1047.78 1676.55 1047.78 1711.9 985.24 1676.55 922.69 1605.86 922.69 1570.52 985.24 1605.86 1047.78"/></g><g class="cls-5"><polygon class="cls-25" points="1402.08 395.88 1472.77 395.88 1508.12 333.34 1472.77 270.8 1402.08 270.8 1366.74 333.34 1402.08 395.88"/><polygon class="cls-26" points="1508.74 333.34 1579.43 333.34 1614.78 270.8 1579.43 208.26 1508.74 208.26 1473.4 270.8 1508.74 333.34"/><polygon class="cls-27" points="1402.08 270.8 1472.77 270.8 1508.12 208.26 1472.77 145.71 1402.08 145.71 1366.74 208.26 1402.08 270.8"/><polygon class="cls-28" points="1402.08 145.71 1472.77 145.71 1508.12 83.17 1472.77 20.63 1402.08 20.63 1366.74 83.17 1402.08 145.71"/><polygon class="cls-29" points="1508.11 83.17 1578.8 83.17 1614.15 20.63 1578.8 -41.91 1508.11 -41.91 1472.77 20.63 1508.11 83.17"/><polygon class="cls-30" points="1402.08 20.63 1472.77 20.63 1508.12 -41.91 1472.77 -104.46 1402.08 -104.46 1366.74 -41.91 1402.08 20.63"/></g><ellipse class="cls-31" cx="1710.61" cy="325.6" rx="23.86" ry="24.38"/><path class="cls-32" d="M1612.64,355.23a9.68,9.68,0,1,0-9.67,9.88A9.78,9.78,0,0,0,1612.64,355.23Z"/><ellipse class="cls-33" cx="1372.63" cy="986.53" rx="9.67" ry="9.88"/><ellipse class="cls-34" cx="1704.81" cy="951.27" rx="9.67" ry="9.88"/><ellipse class="cls-35" cx="1809.04" cy="786.03" rx="9.67" ry="9.88"/><ellipse class="cls-36" cx="1728.52" cy="1021.16" rx="9.67" ry="9.88"/><path class="cls-37" d="M1341.05,818a9,9,0,0,0-12.68-2.63,9.48,9.48,0,0,0-2.57,13,9,9,0,0,0,12.68,2.63A9.46,9.46,0,0,0,1341.05,818Z"/><path class="cls-38" d="M1371.11,573a9,9,0,0,0-12.69-2.63,9.48,9.48,0,0,0-2.57,13,9,9,0,0,0,12.69,2.62A9.47,9.47,0,0,0,1371.11,573Z"/><path class="cls-39" d="M1415.64,308.81a9,9,0,0,0-12.69-2.63,9.48,9.48,0,0,0-2.57,13,9,9,0,0,0,12.69,2.62A9.47,9.47,0,0,0,1415.64,308.81Z"/><path class="cls-40" d="M1425.75,725a9.55,9.55,0,0,0-13.41-2.77,10,10,0,0,0-2.72,13.7,9.55,9.55,0,0,0,13.41,2.77A10,10,0,0,0,1425.75,725Z"/><path class="cls-41" d="M1722.55,455.52a9.56,9.56,0,0,0-13.41-2.78,10,10,0,0,0-2.71,13.7,9.56,9.56,0,0,0,13.41,2.78A10,10,0,0,0,1722.55,455.52Z"/><ellipse class="cls-42" cx="1777.84" cy="499.68" rx="16.77" ry="17.13"/><ellipse class="cls-43" cx="1527.93" cy="941.39" rx="16.77" ry="17.13"/><ellipse class="cls-44" cx="1738.6" cy="688.48" rx="16.77" ry="17.13"/><ellipse class="cls-45" cx="1506.16" cy="362.36" rx="16.77" ry="17.13"/><ellipse class="cls-46" cx="1483.38" cy="1006.72" rx="16.77" ry="17.13"/><path class="cls-47" d="M1410.59,481.65a9.68,9.68,0,1,0-9.67,9.88A9.78,9.78,0,0,0,1410.59,481.65Z"/><ellipse class="cls-48" cx="1417.69" cy="439.48" rx="9.67" ry="9.88"/><ellipse class="cls-49" cx="1402.21" cy="427.62" rx="9.67" ry="9.88"/><ellipse class="cls-50" cx="1357.89" cy="455.95" rx="39.99" ry="40.85"/><path class="cls-51" d="M1876.29,632.6a9.68,9.68,0,1,0,9.67-9.88A9.78,9.78,0,0,0,1876.29,632.6Z"/><ellipse class="cls-52" cx="1869.19" cy="674.78" rx="9.67" ry="9.88"/><ellipse class="cls-53" cx="1884.67" cy="686.64" rx="9.67" ry="9.88"/><ellipse class="cls-54" cx="1928.99" cy="658.3" rx="39.99" ry="40.85"/><path class="cls-55" d="M683.67,610.56a1.94,1.94,0,1,0,1.93-2A2,2,0,0,0,683.67,610.56Z"/><ellipse class="cls-55" cx="685.6" cy="527.95" rx="1.93" ry="1.97"/><path class="cls-55" d="M683.67,445.33a1.94,1.94,0,1,0,1.93-2A2,2,0,0,0,683.67,445.33Z"/><ellipse class="cls-55" cx="685.6" cy="362.71" rx="1.93" ry="1.97"/><g class="cls-56"><polygon class="cls-57" points="1800.08 1160.88 1846.77 1160.88 1870.11 1119.57 1846.77 1078.26 1800.08 1078.26 1776.73 1119.57 1800.08 1160.88"/><polygon class="cls-58" points="1940.59 1160.88 1987.28 1160.88 2010.62 1119.57 1987.28 1078.26 1940.59 1078.26 1917.24 1119.57 1940.59 1160.88"/><polygon class="cls-59" points="1870.14 1119.57 1916.83 1119.57 1940.18 1078.26 1916.83 1036.95 1870.14 1036.95 1846.79 1078.26 1870.14 1119.57"/><polygon class="cls-60" points="1800.08 1078.26 1846.77 1078.26 1870.11 1036.95 1846.77 995.64 1800.08 995.64 1776.73 1036.95 1800.08 1078.26"/><polygon class="cls-61" points="1870.14 1036.95 1916.83 1036.95 1940.18 995.64 1916.83 954.33 1870.14 954.33 1846.79 995.64 1870.14 1036.95"/><polygon class="cls-62" points="1800.08 995.64 1846.77 995.64 1870.11 954.33 1846.77 913.02 1800.08 913.02 1776.73 954.33 1800.08 995.64"/><polygon class="cls-63" points="1800.08 913.02 1846.77 913.02 1870.11 871.71 1846.77 830.4 1800.08 830.4 1776.73 871.71 1800.08 913.02"/><polygon class="cls-63" points="1870.14 954.33 1916.83 954.33 1940.18 913.02 1916.83 871.71 1870.14 871.71 1846.79 913.02 1870.14 954.33"/><polygon class="cls-59" points="1940.59 995.64 1987.28 995.64 2010.62 954.33 1987.28 913.02 1940.59 913.02 1917.24 954.33 1940.59 995.64"/><polygon class="cls-64" points="1940.59 913.02 1987.28 913.02 2010.62 871.71 1987.28 830.4 1940.59 830.4 1917.24 871.71 1940.59 913.02"/><polygon class="cls-60" points="1940.59 1078.26 1987.28 1078.26 2010.62 1036.95 1987.28 995.64 1940.59 995.64 1917.24 1036.95 1940.59 1078.26"/></g><ellipse class="cls-65" cx="1846.79" cy="995.64" rx="24.98" ry="25.52"/><ellipse class="cls-66" cx="1699.78" cy="149.24" rx="24.98" ry="25.52"/><ellipse class="cls-67" cx="367.84" cy="1021.16" rx="24.98" ry="25.52"/><path class="cls-55" d="M1845.29,1078.26a1.94,1.94,0,1,0,1.93-2A2,2,0,0,0,1845.29,1078.26Z"/><path class="cls-55" d="M1774.8,1037a1.93,1.93,0,1,0,1.93-2A2,2,0,0,0,1774.8,1037Z"/><ellipse class="cls-55" cx="1917.24" cy="1036.95" rx="1.93" ry="1.97"/><path class="cls-55" d="M1868.18,954.33a1.93,1.93,0,1,0,1.93-2A2,2,0,0,0,1868.18,954.33Z"/><path class="cls-55" d="M1774.8,954.33a1.93,1.93,0,1,0,1.93-2A2,2,0,0,0,1774.8,954.33Z"/><path class="cls-55" d="M1868.18,871.71a1.93,1.93,0,1,0,1.93-2A2,2,0,0,0,1868.18,871.71Z"/><path class="cls-55" d="M1774.8,871.71a1.93,1.93,0,1,0,1.93-2A2,2,0,0,0,1774.8,871.71Z"/><ellipse class="cls-55" cx="1917.24" cy="954.33" rx="2.99" ry="3.06"/><path class="cls-55" d="M1914.25,871.71a3,3,0,1,0,3-3.06A3,3,0,0,0,1914.25,871.71Z"/><ellipse class="cls-55" cx="1846.79" cy="913.02" rx="2.99" ry="3.06"/><ellipse class="cls-55" cx="1799.52" cy="995.64" rx="2.99" ry="3.06"/><ellipse class="cls-55" cx="1800.47" cy="913.02" rx="2.99" ry="3.06"/><ellipse class="cls-55" cx="1870.11" cy="1036.95" rx="2.99" ry="3.06"/><path class="cls-55" d="M1796.52,1078.26a3,3,0,1,0,3-3.06A3,3,0,0,0,1796.52,1078.26Z"/><g class="cls-56"><polygon class="cls-68" points="1883.08 571.96 1929.77 571.96 1953.12 530.65 1929.77 489.35 1883.08 489.35 1859.74 530.65 1883.08 571.96"/><polygon class="cls-63" points="1883.08 489.35 1929.77 489.35 1953.12 448.04 1929.77 406.73 1883.08 406.73 1859.74 448.04 1883.08 489.35"/><polygon class="cls-57" points="1812.59 448.04 1859.28 448.04 1882.63 406.73 1859.28 365.42 1812.59 365.42 1789.24 406.73 1812.59 448.04"/><polygon class="cls-59" points="1882.65 406.73 1929.34 406.73 1952.69 365.42 1929.34 324.11 1882.65 324.11 1859.31 365.42 1882.65 406.73"/><polygon class="cls-60" points="1812.59 365.42 1859.28 365.42 1882.63 324.11 1859.28 282.8 1812.59 282.8 1789.24 324.11 1812.59 365.42"/><polygon class="cls-61" points="1882.65 324.11 1929.34 324.11 1952.69 282.8 1929.34 241.49 1882.65 241.49 1859.31 282.8 1882.65 324.11"/><polygon class="cls-62" points="1812.59 282.8 1859.28 282.8 1882.63 241.49 1859.28 200.18 1812.59 200.18 1789.24 241.49 1812.59 282.8"/><polygon class="cls-63" points="1812.59 200.18 1859.28 200.18 1882.63 158.87 1859.28 117.56 1812.59 117.56 1789.24 158.87 1812.59 200.18"/><polygon class="cls-63" points="1882.65 241.49 1929.34 241.49 1952.69 200.18 1929.34 158.87 1882.65 158.87 1859.31 200.18 1882.65 241.49"/></g><ellipse class="cls-69" cx="1859.31" cy="282.8" rx="24.98" ry="25.52"/><ellipse class="cls-70" cx="1859.31" cy="448.04" rx="24.98" ry="25.52"/><ellipse class="cls-71" cx="1695.14" cy="825.94" rx="24.98" ry="25.52"/><path class="cls-55" d="M1857.81,365.42a1.93,1.93,0,1,0,1.93-2A1.95,1.95,0,0,0,1857.81,365.42Z"/><path class="cls-55" d="M1787.31,406.73a1.94,1.94,0,1,0,1.93-2A2,2,0,0,0,1787.31,406.73Z"/><path class="cls-55" d="M1787.31,324.11a1.94,1.94,0,1,0,1.93-2A2,2,0,0,0,1787.31,324.11Z"/><path class="cls-55" d="M1880.7,241.49a1.93,1.93,0,1,0,1.93-2A1.95,1.95,0,0,0,1880.7,241.49Z"/><path class="cls-55" d="M1787.31,241.49a1.94,1.94,0,1,0,1.93-2A2,2,0,0,0,1787.31,241.49Z"/><path class="cls-55" d="M1880.7,158.87a1.93,1.93,0,1,0,1.93-2A1.95,1.95,0,0,0,1880.7,158.87Z"/><path class="cls-55" d="M1787.31,158.87a1.94,1.94,0,1,0,1.93-2A2,2,0,0,0,1787.31,158.87Z"/><path class="cls-55" d="M1856.31,200.18a3,3,0,1,0,3-3.06A3,3,0,0,0,1856.31,200.18Z"/><ellipse class="cls-55" cx="1812.03" cy="282.8" rx="2.99" ry="3.06"/><path class="cls-55" d="M1810,200.18a3,3,0,1,0,3-3.06A3,3,0,0,0,1810,200.18Z"/><path class="cls-55" d="M1879.63,324.11a3,3,0,1,0,3-3.06A3,3,0,0,0,1879.63,324.11Z"/><ellipse class="cls-55" cx="1812.03" cy="365.42" rx="2.99" ry="3.06"/><path class="cls-55" d="M1879.63,406.73a3,3,0,1,0,3-3.06A3,3,0,0,0,1879.63,406.73Z"/><path class="cls-55" d="M1809.75,448a3,3,0,1,0,3-3.06A3,3,0,0,0,1809.75,448Z"/><ellipse class="cls-55" cx="1883.19" cy="489.35" rx="2.99" ry="3.06"/><path class="cls-55" d="M1856.74,530.65a3,3,0,1,0,3-3A3,3,0,0,0,1856.74,530.65Z"/><polyline class="cls-63" points="1831.15 214.59 1767.26 328.03 1775.63 342.79 1751.68 387.35"/><ellipse class="cls-72" cx="1749.78" cy="390.71" rx="4.18" ry="4.27"/><polygon class="cls-73" points="1897.27 515.6 1839.77 536.79 2119.54 41.76 2177.03 20.56 1897.27 515.6"/><polyline class="cls-74" points="1348.85 755.61 1315.84 767.78 1476.45 483.58 1509.46 471.42"/><polygon class="cls-75" points="1666.77 885.15 1699.78 872.98 1539.17 1157.17 1506.16 1169.34 1666.77 885.15"/><polyline class="cls-63" points="1536.39 1093.05 1600.28 979.61 1591.92 964.85 1615.87 920.3"/><ellipse class="cls-72" cx="1617.77" cy="916.94" rx="4.18" ry="4.27"/><polyline class="cls-63" points="1581.12 1158.05 1645.01 1044.61 1636.64 1029.85 1660.6 985.29"/><ellipse class="cls-72" cx="1662.5" cy="981.93" rx="4.18" ry="4.27"/><polyline class="cls-63" points="1526.32 1055.68 1590.21 942.23 1581.84 927.47 1605.8 882.92"/><ellipse class="cls-72" cx="1607.7" cy="879.56" rx="4.18" ry="4.27"/><polyline class="cls-63" points="1430.9 213.08 1367.01 326.52 1375.38 341.28 1351.43 385.83"/><ellipse class="cls-72" cx="1349.53" cy="389.2" rx="4.18" ry="4.27"/><path class="cls-72" d="M1348.64,901.72a4.12,4.12,0,0,1-5.77-1.31,4.32,4.32,0,0,1,1.27-5.9,4.14,4.14,0,0,1,5.78,1.31A4.33,4.33,0,0,1,1348.64,901.72Z"/><polyline class="cls-63" points="1433.57 624.86 1475.11 551.1 1491.81 551.06 1517.47 507.52"/><ellipse class="cls-72" cx="1519.55" cy="505.02" rx="4.18" ry="4.27"/><polyline class="cls-63" points="1859.69 448.4 1825.82 508.54 1834.19 523.3 1810.24 567.85"/><ellipse class="cls-72" cx="1808.34" cy="571.22" rx="4.18" ry="4.27"/></g><g id="Capa_6" data-name="Capa 6"><polyline class="cls-76" points="1260.04 20.63 1295.38 -41.92 1260.04 -104.46 1189.35 -104.46 1154 -41.92 1189.35 20.63"/><polygon class="cls-77" points="1120.73 1043.2 1191.42 1043.2 1226.77 980.65 1191.42 918.11 1120.73 918.11 1085.39 980.65 1120.73 1043.2"/><polygon class="cls-78" points="1227.39 980.65 1298.08 980.65 1333.43 918.11 1298.08 855.57 1227.39 855.57 1192.05 918.11 1227.39 980.65"/><polygon class="cls-79" points="1014.73 855.57 1085.41 855.57 1120.76 793.03 1085.41 730.48 1014.73 730.48 979.38 793.03 1014.73 855.57"/><polygon class="cls-80" points="1120.73 793.03 1191.42 793.03 1226.77 730.48 1191.42 667.94 1120.73 667.94 1085.39 730.48 1120.73 793.03"/><polygon class="cls-81" points="1014.07 730.48 1084.76 730.48 1120.11 667.94 1084.76 605.4 1014.07 605.4 978.73 667.94 1014.07 730.48"/><polygon class="cls-82" points="1014.07 480.31 1084.76 480.31 1120.11 417.77 1084.76 355.23 1014.07 355.23 978.73 417.77 1014.07 480.31"/><polygon class="cls-83" points="1120.73 667.94 1191.42 667.94 1226.77 605.4 1191.42 542.86 1120.73 542.86 1085.39 605.4 1120.73 667.94"/><polygon class="cls-84" points="1296.07 208.26 1366.76 208.26 1402.11 145.71 1366.76 83.17 1296.07 83.17 1260.73 145.71 1296.07 208.26"/><line class="cls-85" x1="1189.35" y1="20.63" x2="1260.04" y2="20.63"/><ellipse class="cls-86" cx="1593.29" cy="155.58" rx="24.98" ry="25.52"/><polygon class="cls-87" points="1200.4 756.55 1257.9 735.36 978.14 1230.4 920.64 1251.59 1200.4 756.55"/><polygon class="cls-88" points="1017 592.15 959.5 613.34 1239.26 118.31 1296.76 97.11 1017 592.15"/><line class="cls-89" x1="1509.46" y1="471.41" x2="1348.85" y2="755.61"/><polygon class="cls-90" points="953.82 870.4 986.83 858.23 826.22 1142.43 793.21 1154.6 953.82 870.4"/><line class="cls-91" x1="1358.92" y1="307.77" x2="1198.31" y2="591.96"/></g><g id="BACKGROUND"><rect class="cls-92" x="-54.33" y="183.37" width="1140.84" height="777" transform="translate(1032.18 1143.74) rotate(-180)"/><polygon class="cls-93" points="1008.48 608.43 1041.48 596.26 880.88 880.46 847.87 892.63 1008.48 608.43"/><g class="cls-5"><polygon class="cls-94" points="157.81 947.89 228.5 947.89 263.84 885.35 228.5 822.81 157.81 822.81 122.46 885.35 157.81 947.89"/><polygon class="cls-95" points="51.8 885.35 122.49 885.35 157.83 822.81 122.49 760.26 51.8 760.26 16.45 822.81 51.8 885.35"/><polygon class="cls-96" points="264.47 885.35 335.16 885.35 370.5 822.81 335.16 760.26 264.47 760.26 229.12 822.81 264.47 885.35"/><polygon class="cls-97" points="157.81 822.81 228.5 822.81 263.84 760.26 228.5 697.72 157.81 697.72 122.46 760.26 157.81 822.81"/><polygon class="cls-98" points="51.8 760.26 122.49 760.26 157.83 697.72 122.49 635.18 51.8 635.18 16.45 697.72 51.8 760.26"/><polygon class="cls-99" points="-54.93 697.72 15.76 697.72 51.11 635.18 15.76 572.63 -54.93 572.63 -90.27 635.18 -54.93 697.72"/><polygon class="cls-100" points="157.81 697.72 228.5 697.72 263.84 635.18 228.5 572.63 157.81 572.63 122.46 635.18 157.81 697.72"/><polygon class="cls-101" points="51.15 635.18 121.84 635.18 157.18 572.63 121.84 510.09 51.15 510.09 15.8 572.63 51.15 635.18"/><polygon class="cls-102" points="-54.93 572.63 15.76 572.63 51.11 510.09 15.76 447.55 -54.93 447.55 -90.27 510.09 -54.93 572.63"/><polygon class="cls-103" points="51.15 510.09 121.84 510.09 157.18 447.55 121.84 385.01 51.15 385.01 15.8 447.55 51.15 510.09"/><polygon class="cls-104" points="-54.93 447.55 15.76 447.55 51.11 385.01 15.76 322.46 -54.93 322.46 -90.27 385.01 -54.93 447.55"/><polygon class="cls-105" points="-54.93 322.46 15.76 322.46 51.11 259.92 15.76 197.38 -54.93 197.38 -90.27 259.92 -54.93 322.46"/><polygon class="cls-106" points="51.15 385.01 121.84 385.01 157.18 322.46 121.84 259.92 51.15 259.92 15.8 322.46 51.15 385.01"/><polygon class="cls-107" points="157.81 447.55 228.5 447.55 263.84 385.01 228.5 322.46 157.81 322.46 122.46 385.01 157.81 447.55"/><polygon class="cls-108" points="157.81 322.46 228.5 322.46 263.84 259.92 228.5 197.38 157.81 197.38 122.46 259.92 157.81 322.46"/><polygon class="cls-109" points="263.84 510.09 334.53 510.09 369.87 447.55 334.53 385.01 263.84 385.01 228.49 447.55 263.84 510.09"/><polygon class="cls-110" points="157.81 572.64 228.5 572.64 263.84 510.09 228.5 447.55 157.81 447.55 122.46 510.09 157.81 572.64"/></g><g class="cls-5"><polygon class="cls-111" points="907.6 918.26 978.29 918.26 1013.63 855.72 978.29 793.18 907.6 793.18 872.25 855.72 907.6 918.26"/><polygon class="cls-112" points="801.59 855.72 872.28 855.72 907.62 793.18 872.28 730.63 801.59 730.63 766.24 793.18 801.59 855.72"/><polygon class="cls-113" points="1014.25 855.72 1084.95 855.72 1120.29 793.18 1084.95 730.63 1014.25 730.63 978.91 793.18 1014.25 855.72"/><polygon class="cls-114" points="907.6 793.18 978.29 793.18 1013.63 730.63 978.29 668.09 907.6 668.09 872.25 730.63 907.6 793.18"/><polygon class="cls-115" points="801.59 730.63 872.28 730.63 907.62 668.09 872.28 605.55 801.59 605.55 766.24 668.09 801.59 730.63"/><polygon class="cls-116" points="907.6 668.09 978.29 668.09 1013.63 605.55 978.29 543 907.6 543 872.25 605.55 907.6 668.09"/><polygon class="cls-117" points="800.94 605.55 871.63 605.55 906.97 543 871.63 480.46 800.94 480.46 765.59 543 800.94 605.55"/><polygon class="cls-118" points="694.86 543 765.55 543 800.9 480.46 765.55 417.92 694.86 417.92 659.52 480.46 694.86 543"/><polygon class="cls-119" points="800.94 480.46 871.63 480.46 906.97 417.92 871.63 355.38 800.94 355.38 765.59 417.92 800.94 480.46"/><polygon class="cls-120" points="694.86 417.92 765.55 417.92 800.9 355.38 765.55 292.83 694.86 292.83 659.52 355.38 694.86 417.92"/><polygon class="cls-121" points="694.86 292.83 765.55 292.83 800.9 230.29 765.55 167.75 694.86 167.75 659.52 230.29 694.86 292.83"/><polygon class="cls-122" points="800.94 355.38 871.63 355.38 906.97 292.83 871.63 230.29 800.94 230.29 765.59 292.83 800.94 355.38"/><polygon class="cls-123" points="907.6 417.92 978.29 417.92 1013.63 355.38 978.29 292.83 907.6 292.83 872.25 355.38 907.6 417.92"/><polygon class="cls-124" points="907.6 292.83 978.29 292.83 1013.63 230.29 978.29 167.75 907.6 167.75 872.25 230.29 907.6 292.83"/><polygon class="cls-125" points="1013.63 480.46 1084.32 480.46 1119.66 417.92 1084.32 355.38 1013.63 355.38 978.28 417.92 1013.63 480.46"/><polygon class="cls-126" points="1013.63 605.55 1084.32 605.55 1119.66 543.01 1084.32 480.46 1013.63 480.46 978.28 543.01 1013.63 605.55"/><polygon class="cls-127" points="907.6 543.01 978.29 543.01 1013.63 480.46 978.29 417.92 907.6 417.92 872.25 480.46 907.6 543.01"/></g><g class="cls-5"><polygon class="cls-128" points="430.2 1202.64 500.89 1202.64 536.24 1140.1 500.89 1077.56 430.2 1077.56 394.86 1140.1 430.2 1202.64"/><polygon class="cls-129" points="536.28 1140.1 606.97 1140.1 642.31 1077.56 606.97 1015.02 536.28 1015.02 500.93 1077.56 536.28 1140.1"/><polygon class="cls-130" points="430.2 1077.56 500.89 1077.56 536.24 1015.02 500.89 952.47 430.2 952.47 394.86 1015.02 430.2 1077.56"/><polygon class="cls-131" points="430.2 952.47 500.89 952.47 536.24 889.93 500.89 827.39 430.2 827.39 394.86 889.93 430.2 952.47"/><polygon class="cls-132" points="536.28 1015.02 606.97 1015.02 642.31 952.47 606.97 889.93 536.28 889.93 500.93 952.47 536.28 1015.02"/><polygon class="cls-133" points="642.93 1077.56 713.63 1077.56 748.97 1015.02 713.63 952.47 642.93 952.47 607.59 1015.02 642.93 1077.56"/><polygon class="cls-134" points="642.93 952.47 713.63 952.47 748.97 889.93 713.63 827.39 642.93 827.39 607.59 889.93 642.93 952.47"/><polygon class="cls-135" points="748.97 1140.1 819.65 1140.1 855 1077.56 819.65 1015.02 748.97 1015.02 713.62 1077.56 748.97 1140.1"/><polygon class="cls-136" points="642.93 1202.65 713.63 1202.65 748.97 1140.1 713.63 1077.56 642.93 1077.56 607.59 1140.1 642.93 1202.65"/></g><g class="cls-5"><polygon class="cls-137" points="439.15 300.58 509.85 300.58 545.19 238.04 509.85 175.49 439.15 175.49 403.81 238.04 439.15 300.58"/><polygon class="cls-138" points="333.15 238.04 403.84 238.04 439.18 175.49 403.84 112.95 333.15 112.95 297.8 175.49 333.15 238.04"/><polygon class="cls-139" points="545.81 238.04 616.5 238.04 651.85 175.49 616.5 112.95 545.81 112.95 510.47 175.49 545.81 238.04"/><polygon class="cls-140" points="439.15 175.49 509.85 175.49 545.19 112.95 509.85 50.41 439.15 50.41 403.81 112.95 439.15 175.49"/><polygon class="cls-141" points="333.15 112.95 403.84 112.95 439.18 50.41 403.84 -12.14 333.15 -12.14 297.8 50.41 333.15 112.95"/><polygon class="cls-142" points="226.42 50.41 297.11 50.41 332.46 -12.14 297.11 -74.68 226.42 -74.68 191.08 -12.14 226.42 50.41"/><polygon class="cls-143" points="439.15 50.41 509.85 50.41 545.19 -12.14 509.85 -74.68 439.15 -74.68 403.81 -12.14 439.15 50.41"/></g><ellipse class="cls-144" cx="747.69" cy="230.29" rx="23.86" ry="24.38"/><path class="cls-145" d="M649.72,259.92A9.68,9.68,0,1,0,640,269.8,9.78,9.78,0,0,0,649.72,259.92Z"/><ellipse class="cls-146" cx="409.7" cy="891.23" rx="9.67" ry="9.88"/><ellipse class="cls-147" cx="741.89" cy="855.96" rx="9.67" ry="9.88"/><ellipse class="cls-148" cx="846.11" cy="690.73" rx="9.67" ry="9.88"/><ellipse class="cls-149" cx="765.59" cy="925.85" rx="9.67" ry="9.88"/><path class="cls-150" d="M378.13,722.64A9,9,0,0,0,365.44,720a9.48,9.48,0,0,0-2.57,13,9,9,0,0,0,12.69,2.62A9.48,9.48,0,0,0,378.13,722.64Z"/><path class="cls-151" d="M159.54,438.09a9,9,0,0,0-12.69-2.62,9.48,9.48,0,0,0-2.57,13A9,9,0,0,0,157,451.05,9.48,9.48,0,0,0,159.54,438.09Z"/><path class="cls-152" d="M224.23,337a9,9,0,0,0-12.68-2.63,9.48,9.48,0,0,0-2.57,13A9,9,0,0,0,221.66,350,9.45,9.45,0,0,0,224.23,337Z"/><path class="cls-153" d="M408.18,477.67A9,9,0,0,0,395.5,475a9.46,9.46,0,0,0-2.57,13,9,9,0,0,0,12.68,2.63A9.48,9.48,0,0,0,408.18,477.67Z"/><path class="cls-154" d="M452.71,213.5A9,9,0,0,0,440,210.88a9.47,9.47,0,0,0-2.57,13,9,9,0,0,0,12.68,2.63A9.48,9.48,0,0,0,452.71,213.5Z"/><path class="cls-155" d="M1046.42,680.18a9,9,0,0,0-12.68-2.62,9.45,9.45,0,0,0-2.57,13,9,9,0,0,0,12.68,2.63A9.48,9.48,0,0,0,1046.42,680.18Z"/><path class="cls-156" d="M7.15,274.53a9.55,9.55,0,0,0-13.41-2.77A10,10,0,0,0-9,285.46a9.55,9.55,0,0,0,13.41,2.77A10,10,0,0,0,7.15,274.53Z"/><path class="cls-157" d="M150.82,602a9.54,9.54,0,0,0-13.41-2.77,10,10,0,0,0-2.71,13.7,9.54,9.54,0,0,0,13.41,2.77A10,10,0,0,0,150.82,602Z"/><path class="cls-158" d="M462.82,629.72a9.56,9.56,0,0,0-13.41-2.78,10,10,0,0,0-2.71,13.7,9.56,9.56,0,0,0,13.41,2.78A10,10,0,0,0,462.82,629.72Z"/><path class="cls-159" d="M759.63,360.21a9.55,9.55,0,0,0-13.41-2.77,10,10,0,0,0-2.72,13.7,9.55,9.55,0,0,0,13.41,2.77A10,10,0,0,0,759.63,360.21Z"/><ellipse class="cls-160" cx="-5.65" cy="228.02" rx="33.54" ry="34.26"/><ellipse class="cls-161" cx="233.85" cy="236.71" rx="33.54" ry="34.26"/><ellipse class="cls-162" cx="15.8" cy="909.09" rx="33.54" ry="34.26"/><ellipse class="cls-163" cx="814.92" cy="404.37" rx="16.77" ry="17.13"/><ellipse class="cls-164" cx="565.01" cy="846.08" rx="16.77" ry="17.13"/><ellipse class="cls-165" cx="775.67" cy="593.17" rx="16.77" ry="17.13"/><ellipse class="cls-166" cx="543.23" cy="267.05" rx="16.77" ry="17.13"/><ellipse class="cls-167" cx="520.46" cy="911.42" rx="16.77" ry="17.13"/><path class="cls-168" d="M447.66,386.34a9.67,9.67,0,1,0-9.67,9.89A9.77,9.77,0,0,0,447.66,386.34Z"/><ellipse class="cls-169" cx="454.76" cy="344.17" rx="9.67" ry="9.88"/><ellipse class="cls-170" cx="439.28" cy="332.31" rx="9.67" ry="9.88"/><ellipse class="cls-171" cx="394.96" cy="360.64" rx="39.99" ry="40.85"/><path class="cls-172" d="M46.57,522.84a9.54,9.54,0,0,0,13.66.9,10,10,0,0,0,.88-13.95,9.53,9.53,0,0,0-13.65-.9A10,10,0,0,0,46.57,522.84Z"/><ellipse class="cls-173" cx="68.48" cy="559.31" rx="9.67" ry="9.88"/><path class="cls-174" d="M80.5,564.31a9.54,9.54,0,0,0,13.66.9,10,10,0,0,0,.88-14,9.52,9.52,0,0,0-13.65-.9A10,10,0,0,0,80.5,564.31Z"/><ellipse class="cls-175" cx="102.77" cy="506.62" rx="39.99" ry="40.85"/><path class="cls-176" d="M913.36,537.3a9.68,9.68,0,1,0,9.68-9.89A9.78,9.78,0,0,0,913.36,537.3Z"/><ellipse class="cls-177" cx="906.27" cy="579.47" rx="9.67" ry="9.88"/><ellipse class="cls-178" cx="921.75" cy="591.33" rx="9.67" ry="9.88"/><ellipse class="cls-179" cx="966.06" cy="563" rx="39.99" ry="40.85"/><g class="cls-56"><polygon class="cls-63" points="167.49 1134.9 214.18 1134.9 237.53 1093.59 214.18 1052.28 167.49 1052.28 144.15 1093.59 167.49 1134.9"/><polygon class="cls-68" points="97.47 1093.59 144.16 1093.59 167.51 1052.28 144.16 1010.97 97.47 1010.97 74.13 1052.28 97.47 1093.59"/><polygon class="cls-63" points="237.94 1093.59 284.63 1093.59 307.98 1052.28 284.63 1010.97 237.94 1010.97 214.59 1052.28 237.94 1093.59"/><polygon class="cls-180" points="167.49 1052.28 214.18 1052.28 237.53 1010.97 214.18 969.66 167.49 969.66 144.15 1010.97 167.49 1052.28"/><polygon class="cls-63" points="97.47 1010.97 144.16 1010.97 167.51 969.66 144.16 928.35 97.47 928.35 74.13 969.66 97.47 1010.97"/><polygon class="cls-57" points="26.98 969.66 73.67 969.66 97.02 928.35 73.67 887.04 26.98 887.04 3.64 928.35 26.98 969.66"/><polygon class="cls-58" points="167.49 969.66 214.18 969.66 237.53 928.35 214.18 887.04 167.49 887.04 144.15 928.35 167.49 969.66"/><polygon class="cls-59" points="97.04 928.35 143.74 928.35 167.08 887.04 143.74 845.74 97.04 845.74 73.7 887.04 97.04 928.35"/><polygon class="cls-60" points="26.98 887.04 73.67 887.04 97.02 845.74 73.67 804.43 26.98 804.43 3.64 845.74 26.98 887.04"/><polygon class="cls-61" points="97.04 845.74 143.74 845.74 167.08 804.43 143.74 763.12 97.04 763.12 73.7 804.43 97.04 845.74"/><polygon class="cls-62" points="26.98 804.43 73.67 804.43 97.02 763.12 73.67 721.81 26.98 721.81 3.64 763.12 26.98 804.43"/><polygon class="cls-63" points="26.98 721.81 73.67 721.81 97.02 680.5 73.67 639.19 26.98 639.19 3.64 680.5 26.98 721.81"/><polygon class="cls-63" points="97.04 763.12 143.74 763.12 167.08 721.81 143.74 680.5 97.04 680.5 73.7 721.81 97.04 763.12"/><polygon class="cls-59" points="167.49 804.43 214.18 804.43 237.53 763.12 214.18 721.81 167.49 721.81 144.15 763.12 167.49 804.43"/><polygon class="cls-64" points="167.49 721.81 214.18 721.81 237.53 680.5 214.18 639.19 167.49 639.19 144.15 680.5 167.49 721.81"/><polygon class="cls-181" points="237.53 845.74 284.22 845.74 307.56 804.43 284.22 763.12 237.53 763.12 214.18 804.43 237.53 845.74"/><polygon class="cls-63" points="237.53 928.36 284.22 928.36 307.56 887.05 284.22 845.74 237.53 845.74 214.18 887.05 237.53 928.36"/><polygon class="cls-60" points="167.49 887.05 214.18 887.05 237.53 845.74 214.18 804.43 167.49 804.43 144.15 845.74 167.49 887.05"/></g><ellipse class="cls-182" cx="73.7" cy="804.43" rx="24.98" ry="25.52"/><ellipse class="cls-183" cx="73.7" cy="969.66" rx="24.98" ry="25.52"/><ellipse class="cls-184" cx="237.53" cy="763.12" rx="24.98" ry="25.52"/><ellipse class="cls-185" cx="520.49" cy="351.54" rx="24.98" ry="25.52"/><ellipse class="cls-55" cx="214.6" cy="1052.28" rx="2.05" ry="2.09"/><ellipse class="cls-55" cx="284.24" cy="1010.97" rx="2.99" ry="3.06"/><ellipse class="cls-55" cx="237.53" cy="1010.97" rx="2.99" ry="3.06"/><path class="cls-55" d="M212.66,969.66a1.94,1.94,0,1,0,1.94-2A2,2,0,0,0,212.66,969.66Z"/><path class="cls-55" d="M282.31,928.36a1.93,1.93,0,1,0,1.93-2A1.95,1.95,0,0,0,282.31,928.36Z"/><path class="cls-55" d="M212.25,887a1.93,1.93,0,1,0,1.93-2A2,2,0,0,0,212.25,887Z"/><path class="cls-55" d="M142.22,928.36a1.93,1.93,0,1,0,1.93-2A1.95,1.95,0,0,0,142.22,928.36Z"/><path class="cls-55" d="M72.2,887.05a1.93,1.93,0,1,0,1.93-2A1.95,1.95,0,0,0,72.2,887.05Z"/><ellipse class="cls-55" cx="3.64" cy="928.35" rx="1.93" ry="1.97"/><ellipse class="cls-55" cx="3.64" cy="845.74" rx="1.93" ry="1.97"/><path class="cls-55" d="M142.22,845.74a1.93,1.93,0,1,0,1.93-2A2,2,0,0,0,142.22,845.74Z"/><path class="cls-55" d="M212.25,804.43a1.93,1.93,0,1,0,1.93-2A1.95,1.95,0,0,0,212.25,804.43Z"/><path class="cls-55" d="M95.09,763.12a1.93,1.93,0,1,0,1.93-2A1.95,1.95,0,0,0,95.09,763.12Z"/><path class="cls-55" d="M1.71,763.12a2,2,0,0,0,1.93,2,2,2,0,0,0,0-4A2,2,0,0,0,1.71,763.12Z"/><path class="cls-55" d="M165.15,721.81a1.93,1.93,0,1,0,1.93-2A1.95,1.95,0,0,0,165.15,721.81Z"/><path class="cls-55" d="M95.09,680.5a1.93,1.93,0,1,0,1.93-2A1.95,1.95,0,0,0,95.09,680.5Z"/><ellipse class="cls-55" cx="3.64" cy="680.5" rx="1.93" ry="1.97"/><path class="cls-55" d="M235.6,680.5a1.93,1.93,0,1,0,1.93-2A1.95,1.95,0,0,0,235.6,680.5Z"/><path class="cls-55" d="M235.6,845.74a1.93,1.93,0,1,0,1.93-2A1.95,1.95,0,0,0,235.6,845.74Z"/><ellipse class="cls-55" cx="307.56" cy="804.43" rx="1.93" ry="1.97"/><ellipse class="cls-55" cx="167.51" cy="969.66" rx="2.99" ry="3.06"/><ellipse class="cls-55" cx="237.53" cy="928.36" rx="2.99" ry="3.06"/><path class="cls-55" d="M164.09,887.05a3,3,0,1,0,3-3.06A3,3,0,0,0,164.09,887.05Z"/><ellipse class="cls-55" cx="167.08" cy="804.43" rx="2.99" ry="3.06"/><path class="cls-55" d="M283.18,763.12a3,3,0,1,0,3-3.06A3,3,0,0,0,283.18,763.12Z"/><ellipse class="cls-55" cx="144.15" cy="763.12" rx="2.99" ry="3.06"/><ellipse class="cls-55" cx="214.18" cy="721.81" rx="2.99" ry="3.06"/><ellipse class="cls-55" cx="144.15" cy="680.5" rx="2.99" ry="3.06"/><ellipse class="cls-55" cx="73.7" cy="721.81" rx="2.99" ry="3.06"/><ellipse class="cls-55" cx="26.42" cy="804.43" rx="2.99" ry="3.06"/><ellipse class="cls-55" cx="27.37" cy="721.81" rx="2.99" ry="3.06"/><path class="cls-55" d="M94,845.74a3,3,0,1,0,3-3.06A3,3,0,0,0,94,845.74Z"/><ellipse class="cls-55" cx="26.42" cy="887.04" rx="2.99" ry="3.06"/><path class="cls-55" d="M94,928.36a3,3,0,1,0,3-3.06A3,3,0,0,0,94,928.36Z"/><ellipse class="cls-55" cx="27.14" cy="969.66" rx="2.99" ry="3.06"/><ellipse class="cls-55" cx="284.24" cy="845.74" rx="2.99" ry="3.06"/><path class="cls-55" d="M142.1,1011a2,2,0,1,0,2.05-2.08A2.07,2.07,0,0,0,142.1,1011Z"/><path class="cls-55" d="M94.59,1011a3,3,0,1,0,3-3.05A3,3,0,0,0,94.59,1011Z"/><path class="cls-55" d="M71.14,1052.28a3,3,0,1,0,3-3A3,3,0,0,0,71.14,1052.28Z"/><path class="cls-55" d="M164.52,1052.28a3,3,0,1,0,3-3A3,3,0,0,0,164.52,1052.28Z"/><g class="cls-56"><polygon class="cls-63" points="167.49 476.31 214.18 476.31 237.53 435 214.18 393.69 167.49 393.69 144.15 435 167.49 476.31"/><polygon class="cls-68" points="97.47 435 144.16 435 167.51 393.69 144.16 352.38 97.47 352.38 74.13 393.69 97.47 435"/><polygon class="cls-63" points="237.94 435 284.63 435 307.98 393.69 284.63 352.38 237.94 352.38 214.59 393.69 237.94 435"/><polygon class="cls-180" points="167.49 393.69 214.18 393.69 237.53 352.38 214.18 311.08 167.49 311.08 144.15 352.38 167.49 393.69"/><polygon class="cls-63" points="97.47 352.38 144.16 352.38 167.51 311.08 144.16 269.77 97.47 269.77 74.13 311.08 97.47 352.38"/><polygon class="cls-57" points="26.98 311.08 73.67 311.08 97.02 269.77 73.67 228.46 26.98 228.46 3.64 269.77 26.98 311.08"/><polygon class="cls-58" points="167.49 311.08 214.18 311.08 237.53 269.77 214.18 228.46 167.49 228.46 144.15 269.77 167.49 311.08"/><polygon class="cls-59" points="97.04 269.77 143.74 269.77 167.08 228.46 143.74 187.15 97.04 187.15 73.7 228.46 97.04 269.77"/><polygon class="cls-60" points="26.98 228.46 73.67 228.46 97.02 187.15 73.67 145.84 26.98 145.84 3.64 187.15 26.98 228.46"/><polygon class="cls-61" points="97.04 187.15 143.74 187.15 167.08 145.84 143.74 104.53 97.04 104.53 73.7 145.84 97.04 187.15"/><polygon class="cls-62" points="26.98 145.84 73.67 145.84 97.02 104.53 73.67 63.22 26.98 63.22 3.64 104.53 26.98 145.84"/><polygon class="cls-63" points="26.98 63.22 73.67 63.22 97.02 21.91 73.67 -19.4 26.98 -19.4 3.64 21.91 26.98 63.22"/><polygon class="cls-63" points="97.04 104.53 143.74 104.53 167.08 63.22 143.74 21.91 97.04 21.91 73.7 63.22 97.04 104.53"/><polygon class="cls-59" points="167.49 145.84 214.18 145.84 237.53 104.53 214.18 63.22 167.49 63.22 144.15 104.53 167.49 145.84"/><polygon class="cls-64" points="167.49 63.22 214.18 63.22 237.53 21.91 214.18 -19.4 167.49 -19.4 144.15 21.91 167.49 63.22"/><polygon class="cls-181" points="237.53 187.15 284.22 187.15 307.56 145.84 284.22 104.53 237.53 104.53 214.18 145.84 237.53 187.15"/><polygon class="cls-63" points="237.53 269.77 284.22 269.77 307.56 228.46 284.22 187.15 237.53 187.15 214.18 228.46 237.53 269.77"/><polygon class="cls-60" points="167.49 228.46 214.18 228.46 237.53 187.15 214.18 145.84 167.49 145.84 144.15 187.15 167.49 228.46"/></g><ellipse class="cls-186" cx="73.7" cy="145.84" rx="24.98" ry="25.52"/><ellipse class="cls-187" cx="73.7" cy="311.08" rx="24.98" ry="25.52"/><ellipse class="cls-188" cx="237.53" cy="104.53" rx="24.98" ry="25.52"/><ellipse class="cls-189" cx="237.53" cy="435" rx="24.98" ry="25.52"/><ellipse class="cls-55" cx="144.15" cy="435" rx="2.12" ry="2.16"/><ellipse class="cls-55" cx="214.6" cy="393.69" rx="2.05" ry="2.09"/><path class="cls-55" d="M281.25,352.39a3,3,0,1,0,3-3.06A3,3,0,0,0,281.25,352.39Z"/><path class="cls-55" d="M234.54,352.39a3,3,0,1,0,3-3.06A3,3,0,0,0,234.54,352.39Z"/><path class="cls-55" d="M212.66,311.08a1.94,1.94,0,1,0,1.94-2A2,2,0,0,0,212.66,311.08Z"/><path class="cls-55" d="M282.31,269.77a1.93,1.93,0,1,0,1.93-2A1.95,1.95,0,0,0,282.31,269.77Z"/><path class="cls-55" d="M212.25,228.46a1.93,1.93,0,1,0,1.93-2A1.95,1.95,0,0,0,212.25,228.46Z"/><path class="cls-55" d="M142.22,269.77a1.93,1.93,0,1,0,1.93-2A1.95,1.95,0,0,0,142.22,269.77Z"/><ellipse class="cls-55" cx="74.13" cy="228.46" rx="1.93" ry="1.97"/><path class="cls-55" d="M1.71,269.77a2,2,0,0,0,1.93,2,2,2,0,0,0,0-3.95A2,2,0,0,0,1.71,269.77Z"/><path class="cls-55" d="M1.71,187.15a2,2,0,0,0,1.93,2,2,2,0,0,0,0-3.94A2,2,0,0,0,1.71,187.15Z"/><path class="cls-55" d="M142.22,187.15a1.93,1.93,0,1,0,1.93-2A1.95,1.95,0,0,0,142.22,187.15Z"/><path class="cls-55" d="M212.25,145.84a1.93,1.93,0,1,0,1.93-2A1.95,1.95,0,0,0,212.25,145.84Z"/><path class="cls-55" d="M95.09,104.53a1.93,1.93,0,1,0,1.93-2A1.95,1.95,0,0,0,95.09,104.53Z"/><path class="cls-55" d="M1.71,104.53a2,2,0,0,0,1.93,2,2,2,0,0,0,0-3.94A2,2,0,0,0,1.71,104.53Z"/><ellipse class="cls-55" cx="167.08" cy="63.22" rx="1.93" ry="1.97"/><path class="cls-55" d="M95.09,21.91a1.93,1.93,0,1,0,1.93-2A1.95,1.95,0,0,0,95.09,21.91Z"/><path class="cls-55" d="M1.71,21.91a2,2,0,0,0,1.93,2,2,2,0,0,0,0-3.94A2,2,0,0,0,1.71,21.91Z"/><path class="cls-55" d="M235.6,21.91a1.93,1.93,0,1,0,1.93-2A1.95,1.95,0,0,0,235.6,21.91Z"/><path class="cls-55" d="M235.6,187.15a1.93,1.93,0,1,0,1.93-2A1.95,1.95,0,0,0,235.6,187.15Z"/><ellipse class="cls-55" cx="307.56" cy="145.84" rx="1.93" ry="1.97"/><ellipse class="cls-55" cx="167.51" cy="311.08" rx="2.99" ry="3.06"/><ellipse class="cls-55" cx="237.53" cy="269.77" rx="2.99" ry="3.06"/><ellipse class="cls-55" cx="167.08" cy="228.46" rx="2.99" ry="3.06"/><path class="cls-55" d="M164.09,145.84a3,3,0,1,0,3-3.06A3,3,0,0,0,164.09,145.84Z"/><path class="cls-55" d="M283.18,104.53a3,3,0,1,0,3-3.06A3,3,0,0,0,283.18,104.53Z"/><ellipse class="cls-55" cx="144.15" cy="104.53" rx="2.99" ry="3.06"/><ellipse class="cls-55" cx="214.18" cy="63.22" rx="2.99" ry="3.06"/><ellipse class="cls-55" cx="144.15" cy="21.91" rx="2.99" ry="3.06"/><ellipse class="cls-55" cx="73.7" cy="63.22" rx="2.99" ry="3.06"/><ellipse class="cls-55" cx="26.42" cy="145.84" rx="2.99" ry="3.06"/><ellipse class="cls-55" cx="27.37" cy="63.22" rx="2.99" ry="3.06"/><path class="cls-55" d="M94,187.15a3,3,0,1,0,3-3.06A3,3,0,0,0,94,187.15Z"/><ellipse class="cls-55" cx="26.42" cy="228.46" rx="2.99" ry="3.06"/><path class="cls-55" d="M94,269.77a3,3,0,1,0,3-3.06A3,3,0,0,0,94,269.77Z"/><ellipse class="cls-55" cx="27.14" cy="311.08" rx="2.99" ry="3.06"/><path class="cls-55" d="M281.25,187.15a3,3,0,1,0,3-3.06A3,3,0,0,0,281.25,187.15Z"/><path class="cls-55" d="M142.1,352.39a2,2,0,1,0,2.05-2.09A2.07,2.07,0,0,0,142.1,352.39Z"/><path class="cls-55" d="M94.59,352.39a3,3,0,1,0,3-3.06A3,3,0,0,0,94.59,352.39Z"/><ellipse class="cls-55" cx="74.13" cy="393.69" rx="2.99" ry="3.06"/><ellipse class="cls-55" cx="167.51" cy="393.69" rx="2.99" ry="3.06"/><ellipse class="cls-55" cx="284.24" cy="435" rx="2.99" ry="3.06"/><g class="cls-56"><polygon class="cls-63" points="-43.02 680.5 3.67 680.5 27.02 639.19 3.67 597.88 -43.02 597.88 -66.36 639.19 -43.02 680.5"/><polygon class="cls-181" points="-43.43 432.64 3.26 432.64 26.6 391.33 3.26 350.02 -43.43 350.02 -66.78 391.33 -43.43 432.64"/><polygon class="cls-63" points="-43.43 515.26 3.26 515.26 26.6 473.95 3.26 432.64 -43.43 432.64 -66.78 473.95 -43.43 515.26"/></g><ellipse class="cls-190" cx="678.28" cy="119.28" rx="24.98" ry="25.52"/><ellipse class="cls-191" cx="751.56" cy="130.05" rx="24.98" ry="25.52"/><ellipse class="cls-55" cx="3.28" cy="597.88" rx="2.99" ry="3.06"/><ellipse class="cls-55" cx="3.28" cy="515.26" rx="1.93" ry="1.97"/><path class="cls-55" d="M24.67,391.33a1.93,1.93,0,1,0,1.93-2A2,2,0,0,0,24.67,391.33Z"/><path class="cls-55" d="M2.22,350a3,3,0,0,0,3,3.06,3.06,3.06,0,0,0,0-6.12A3,3,0,0,0,2.22,350Z"/><ellipse class="cls-55" cx="3.28" cy="432.64" rx="2.99" ry="3.06"/><ellipse class="cls-55" cx="3.28" cy="680.5" rx="2.99" ry="3.06"/><g class="cls-56"><polygon class="cls-180" points="977.66 1148.19 1024.35 1148.19 1047.7 1106.88 1024.35 1065.57 977.66 1065.57 954.32 1106.88 977.66 1148.19"/><polygon class="cls-63" points="907.64 1106.88 954.33 1106.88 977.68 1065.57 954.33 1024.26 907.64 1024.26 884.3 1065.57 907.64 1106.88"/><polygon class="cls-57" points="837.15 1065.57 883.84 1065.57 907.19 1024.26 883.84 982.95 837.15 982.95 813.8 1024.26 837.15 1065.57"/><polygon class="cls-58" points="977.66 1065.57 1024.35 1065.57 1047.7 1024.26 1024.35 982.95 977.66 982.95 954.32 1024.26 977.66 1065.57"/><polygon class="cls-59" points="907.21 1024.26 953.9 1024.26 977.25 982.95 953.9 941.64 907.21 941.64 883.87 982.95 907.21 1024.26"/><polygon class="cls-60" points="837.15 982.95 883.84 982.95 907.19 941.64 883.84 900.33 837.15 900.33 813.8 941.64 837.15 982.95"/><polygon class="cls-61" points="907.21 941.64 953.9 941.64 977.25 900.33 953.9 859.02 907.21 859.02 883.87 900.33 907.21 941.64"/><polygon class="cls-62" points="837.15 900.33 883.84 900.33 907.19 859.02 883.84 817.71 837.15 817.71 813.8 859.02 837.15 900.33"/><polygon class="cls-63" points="837.15 817.71 883.84 817.71 907.19 776.4 883.84 735.1 837.15 735.1 813.8 776.4 837.15 817.71"/><polygon class="cls-63" points="907.21 859.02 953.9 859.02 977.25 817.71 953.9 776.4 907.21 776.4 883.87 817.71 907.21 859.02"/><polygon class="cls-59" points="977.66 900.33 1024.35 900.33 1047.7 859.02 1024.35 817.71 977.66 817.71 954.32 859.02 977.66 900.33"/><polygon class="cls-64" points="977.66 817.71 1024.35 817.71 1047.7 776.4 1024.35 735.1 977.66 735.1 954.32 776.4 977.66 817.71"/><polygon class="cls-181" points="1047.69 941.64 1094.38 941.64 1117.73 900.33 1094.38 859.02 1047.69 859.02 1024.35 900.33 1047.69 941.64"/><polygon class="cls-63" points="1047.69 1024.26 1094.38 1024.26 1117.73 982.95 1094.38 941.64 1047.69 941.64 1024.35 982.95 1047.69 1024.26"/><polygon class="cls-60" points="977.66 982.95 1024.35 982.95 1047.7 941.64 1024.35 900.33 977.66 900.33 954.32 941.64 977.66 982.95"/></g><ellipse class="cls-192" cx="883.87" cy="900.33" rx="24.98" ry="25.52"/><ellipse class="cls-193" cx="883.87" cy="1065.57" rx="24.98" ry="25.52"/><ellipse class="cls-194" cx="1047.7" cy="859.02" rx="24.98" ry="25.52"/><ellipse class="cls-195" cx="1225.44" cy="241.46" rx="24.98" ry="25.52"/><ellipse class="cls-55" cx="1024.76" cy="1065.57" rx="1.93" ry="1.97"/><path class="cls-55" d="M1092.48,1024.26a1.93,1.93,0,1,0,1.93-2A2,2,0,0,0,1092.48,1024.26Z"/><path class="cls-55" d="M1022.42,983a1.93,1.93,0,1,0,1.93-2A1.95,1.95,0,0,0,1022.42,983Z"/><path class="cls-55" d="M952.39,1024.26a1.93,1.93,0,1,0,1.93-2A2,2,0,0,0,952.39,1024.26Z"/><path class="cls-55" d="M882.37,983a1.93,1.93,0,1,0,1.93-2A2,2,0,0,0,882.37,983Z"/><path class="cls-55" d="M811.87,1024.26a1.94,1.94,0,1,0,1.94-2A2,2,0,0,0,811.87,1024.26Z"/><path class="cls-55" d="M811.87,941.64a1.94,1.94,0,1,0,1.94-2A2,2,0,0,0,811.87,941.64Z"/><ellipse class="cls-55" cx="954.32" cy="941.64" rx="1.93" ry="1.97"/><path class="cls-55" d="M1022.42,900.33a1.93,1.93,0,1,0,1.93-2A2,2,0,0,0,1022.42,900.33Z"/><path class="cls-55" d="M905.26,859a1.93,1.93,0,1,0,1.93-2A2,2,0,0,0,905.26,859Z"/><path class="cls-55" d="M811.87,859a1.94,1.94,0,1,0,1.94-2A2,2,0,0,0,811.87,859Z"/><ellipse class="cls-55" cx="977.25" cy="817.71" rx="1.93" ry="1.97"/><path class="cls-55" d="M905.26,776.4a1.93,1.93,0,1,0,1.93-2A2,2,0,0,0,905.26,776.4Z"/><path class="cls-55" d="M811.87,776.4a1.94,1.94,0,1,0,1.94-2A2,2,0,0,0,811.87,776.4Z"/><path class="cls-55" d="M1045.77,776.4a1.93,1.93,0,1,0,1.93-2A2,2,0,0,0,1045.77,776.4Z"/><ellipse class="cls-55" cx="1047.7" cy="941.64" rx="1.93" ry="1.97"/><path class="cls-55" d="M1115.8,900.33a1.93,1.93,0,1,0,1.93-2A2,2,0,0,0,1115.8,900.33Z"/><ellipse class="cls-55" cx="977.68" cy="1065.57" rx="2.99" ry="3.06"/><path class="cls-55" d="M1044.7,1024.26a3,3,0,1,0,3-3A3,3,0,0,0,1044.7,1024.26Z"/><ellipse class="cls-55" cx="977.25" cy="982.95" rx="2.99" ry="3.06"/><ellipse class="cls-55" cx="977.25" cy="900.33" rx="2.99" ry="3.06"/><ellipse class="cls-55" cx="1096.34" cy="859.02" rx="2.99" ry="3.06"/><ellipse class="cls-55" cx="954.32" cy="859.02" rx="2.99" ry="3.06"/><ellipse class="cls-55" cx="1024.35" cy="817.71" rx="2.99" ry="3.06"/><path class="cls-55" d="M951.32,776.4a3,3,0,1,0,3-3A3,3,0,0,0,951.32,776.4Z"/><ellipse class="cls-55" cx="883.87" cy="817.71" rx="2.99" ry="3.06"/><ellipse class="cls-55" cx="836.59" cy="900.33" rx="2.99" ry="3.06"/><ellipse class="cls-55" cx="837.54" cy="817.71" rx="2.99" ry="3.06"/><ellipse class="cls-55" cx="907.19" cy="941.64" rx="2.99" ry="3.06"/><path class="cls-55" d="M833.6,983a3,3,0,1,0,3-3.06A3,3,0,0,0,833.6,983Z"/><path class="cls-55" d="M904.19,1024.26a3,3,0,1,0,3-3A3,3,0,0,0,904.19,1024.26Z"/><ellipse class="cls-55" cx="837.31" cy="1065.57" rx="2.99" ry="3.06"/><ellipse class="cls-55" cx="1094.41" cy="941.64" rx="2.99" ry="3.06"/><g class="cls-56"><polygon class="cls-63" points="990.17 517.97 1036.87 517.97 1060.21 476.66 1036.87 435.35 990.17 435.35 966.83 476.66 990.17 517.97"/><polygon class="cls-68" points="920.16 476.66 966.85 476.66 990.19 435.35 966.85 394.04 920.16 394.04 896.81 435.35 920.16 476.66"/><polygon class="cls-63" points="1060.62 476.66 1107.31 476.66 1130.66 435.35 1107.31 394.04 1060.62 394.04 1037.28 435.35 1060.62 476.66"/><polygon class="cls-180" points="990.17 435.35 1036.87 435.35 1060.21 394.04 1036.87 352.73 990.17 352.73 966.83 394.04 990.17 435.35"/><polygon class="cls-63" points="920.16 394.04 966.85 394.04 990.19 352.73 966.85 311.42 920.16 311.42 896.81 352.73 920.16 394.04"/><polygon class="cls-57" points="849.66 352.73 896.36 352.73 919.7 311.42 896.36 270.11 849.66 270.11 826.32 311.42 849.66 352.73"/><polygon class="cls-58" points="990.17 352.73 1036.87 352.73 1060.21 311.42 1036.87 270.11 990.17 270.11 966.83 311.42 990.17 352.73"/><polygon class="cls-59" points="919.73 311.42 966.42 311.42 989.76 270.11 966.42 228.8 919.73 228.8 896.38 270.11 919.73 311.42"/><polygon class="cls-60" points="849.66 270.11 896.36 270.11 919.7 228.8 896.36 187.49 849.66 187.49 826.32 228.8 849.66 270.11"/><polygon class="cls-61" points="919.73 228.8 966.42 228.8 989.76 187.49 966.42 146.18 919.73 146.18 896.38 187.49 919.73 228.8"/><polygon class="cls-62" points="849.66 187.49 896.36 187.49 919.7 146.18 896.36 104.87 849.66 104.87 826.32 146.18 849.66 187.49"/><polygon class="cls-63" points="849.66 104.87 896.36 104.87 919.7 63.56 896.36 22.25 849.66 22.25 826.32 63.56 849.66 104.87"/><polygon class="cls-63" points="919.73 146.18 966.42 146.18 989.76 104.87 966.42 63.56 919.73 63.56 896.38 104.87 919.73 146.18"/><polygon class="cls-59" points="990.17 187.49 1036.87 187.49 1060.21 146.18 1036.87 104.87 990.17 104.87 966.83 146.18 990.17 187.49"/><polygon class="cls-181" points="1060.21 228.8 1106.9 228.8 1130.24 187.49 1106.9 146.18 1060.21 146.18 1036.86 187.49 1060.21 228.8"/><polygon class="cls-63" points="1060.21 311.42 1106.9 311.42 1130.24 270.11 1106.9 228.8 1060.21 228.8 1036.86 270.11 1060.21 311.42"/><polygon class="cls-60" points="990.17 270.11 1036.87 270.11 1060.21 228.8 1036.87 187.49 990.17 187.49 966.83 228.8 990.17 270.11"/></g><ellipse class="cls-196" cx="896.38" cy="187.49" rx="24.98" ry="25.52"/><ellipse class="cls-197" cx="896.38" cy="352.73" rx="24.98" ry="25.52"/><ellipse class="cls-198" cx="1060.21" cy="146.18" rx="24.98" ry="25.52"/><ellipse class="cls-199" cx="1060.21" cy="476.66" rx="24.98" ry="25.52"/><ellipse class="cls-55" cx="966.83" cy="476.66" rx="2.12" ry="2.16"/><ellipse class="cls-55" cx="1037.28" cy="435.35" rx="2.05" ry="2.09"/><ellipse class="cls-55" cx="1106.92" cy="394.04" rx="2.99" ry="3.06"/><ellipse class="cls-55" cx="1060.21" cy="394.04" rx="2.99" ry="3.06"/><ellipse class="cls-55" cx="1037.28" cy="352.73" rx="1.93" ry="1.97"/><ellipse class="cls-55" cx="1106.92" cy="311.42" rx="1.93" ry="1.97"/><ellipse class="cls-55" cx="1036.86" cy="270.11" rx="1.93" ry="1.97"/><ellipse class="cls-55" cx="966.83" cy="311.42" rx="1.93" ry="1.97"/><path class="cls-55" d="M894.88,270.11a1.93,1.93,0,1,0,1.93-2A1.95,1.95,0,0,0,894.88,270.11Z"/><path class="cls-55" d="M824.39,311.42a1.93,1.93,0,1,0,1.93-2A1.95,1.95,0,0,0,824.39,311.42Z"/><path class="cls-55" d="M824.39,228.8a1.93,1.93,0,1,0,1.93-2A2,2,0,0,0,824.39,228.8Z"/><ellipse class="cls-55" cx="966.83" cy="228.8" rx="1.93" ry="1.97"/><ellipse class="cls-55" cx="1036.86" cy="187.49" rx="1.93" ry="1.97"/><path class="cls-55" d="M917.77,146.18a1.93,1.93,0,1,0,1.93-2A2,2,0,0,0,917.77,146.18Z"/><path class="cls-55" d="M824.39,146.18a1.93,1.93,0,1,0,1.93-2A2,2,0,0,0,824.39,146.18Z"/><path class="cls-55" d="M987.83,104.87a1.93,1.93,0,1,0,1.93-2A2,2,0,0,0,987.83,104.87Z"/><path class="cls-55" d="M917.77,63.56a1.93,1.93,0,1,0,1.93-2A2,2,0,0,0,917.77,63.56Z"/><path class="cls-55" d="M824.39,63.56a1.93,1.93,0,1,0,1.93-2A2,2,0,0,0,824.39,63.56Z"/><ellipse class="cls-55" cx="1060.21" cy="63.56" rx="1.93" ry="1.97"/><path class="cls-55" d="M1058.28,228.8a1.93,1.93,0,1,0,1.93-2A2,2,0,0,0,1058.28,228.8Z"/><ellipse class="cls-55" cx="1130.24" cy="187.49" rx="1.93" ry="1.97"/><path class="cls-55" d="M987.2,352.73a3,3,0,1,0,3-3.06A3,3,0,0,0,987.2,352.73Z"/><ellipse class="cls-55" cx="1060.21" cy="311.42" rx="2.99" ry="3.06"/><ellipse class="cls-55" cx="989.76" cy="270.11" rx="2.99" ry="3.06"/><ellipse class="cls-55" cx="989.76" cy="187.49" rx="2.99" ry="3.06"/><path class="cls-55" d="M1105.86,146.18a3,3,0,1,0,3-3.05A3,3,0,0,0,1105.86,146.18Z"/><path class="cls-55" d="M963.84,146.18a3,3,0,1,0,3-3.05A3,3,0,0,0,963.84,146.18Z"/><path class="cls-55" d="M1033.87,104.87a3,3,0,1,0,3-3.06A3,3,0,0,0,1033.87,104.87Z"/><ellipse class="cls-55" cx="966.83" cy="63.56" rx="2.99" ry="3.06"/><path class="cls-55" d="M893.39,104.87a3,3,0,1,0,3-3.06A3,3,0,0,0,893.39,104.87Z"/><ellipse class="cls-55" cx="849.1" cy="187.49" rx="2.99" ry="3.06"/><path class="cls-55" d="M847.06,104.87a3,3,0,1,0,3-3.06A3,3,0,0,0,847.06,104.87Z"/><path class="cls-55" d="M916.71,228.8a3,3,0,1,0,3-3.06A3,3,0,0,0,916.71,228.8Z"/><ellipse class="cls-55" cx="849.1" cy="270.11" rx="2.99" ry="3.06"/><path class="cls-55" d="M916.71,311.42a3,3,0,1,0,3-3.06A3,3,0,0,0,916.71,311.42Z"/><path class="cls-55" d="M846.83,352.73a3,3,0,1,0,3-3.06A3,3,0,0,0,846.83,352.73Z"/><ellipse class="cls-55" cx="1106.92" cy="228.8" rx="2.99" ry="3.06"/><path class="cls-55" d="M964.79,394a2,2,0,1,0,2-2.09A2.07,2.07,0,0,0,964.79,394Z"/><ellipse class="cls-55" cx="920.26" cy="394.04" rx="2.99" ry="3.06"/><path class="cls-55" d="M893.82,435.35a3,3,0,1,0,3-3.06A3,3,0,0,0,893.82,435.35Z"/><path class="cls-55" d="M987.2,435.35a3,3,0,1,0,3-3.06A3,3,0,0,0,987.2,435.35Z"/><ellipse class="cls-55" cx="1106.92" cy="476.66" rx="2.99" ry="3.06"/><polyline class="cls-63" points="868.22 119.28 804.34 232.72 812.7 247.49 788.75 292.04"/><ellipse class="cls-72" cx="786.85" cy="295.4" rx="4.18" ry="4.27"/><polygon class="cls-200" points="934.35 420.29 876.85 441.49 1156.61 -53.55 1214.11 -74.75 934.35 420.29"/><polygon class="cls-201" points="237.48 661.25 294.97 640.05 15.21 1135.09 -42.29 1156.29 237.48 661.25"/><polygon class="cls-202" points="54.07 496.84 -3.43 518.04 276.33 23 333.83 1.8 54.07 496.84"/><polygon class="cls-203" points="513.52 388.28 546.53 376.11 385.92 660.31 352.92 672.48 513.52 388.28"/><polygon class="cls-204" points="-9.1 775.09 23.91 762.92 -136.7 1047.12 -169.71 1059.29 -9.1 775.09"/><polygon class="cls-205" points="362.98 224.63 395.99 212.46 235.38 496.66 202.37 508.83 362.98 224.63"/><polygon class="cls-206" points="703.84 789.84 736.85 777.67 576.24 1061.87 543.23 1074.04 703.84 789.84"/><polyline class="cls-63" points="573.47 997.75 637.36 884.31 628.99 869.54 652.94 824.99"/><ellipse class="cls-72" cx="654.84" cy="821.63" rx="4.18" ry="4.27"/><polyline class="cls-63" points="618.2 1062.74 682.08 949.3 673.72 934.54 697.67 889.99"/><ellipse class="cls-72" cx="699.57" cy="886.63" rx="4.18" ry="4.27"/><polyline class="cls-63" points="563.39 960.37 627.28 846.93 618.92 832.16 642.87 787.62"/><ellipse class="cls-72" cx="644.77" cy="784.25" rx="4.18" ry="4.27"/><polyline class="cls-63" points="1118.45 463.09 1054.56 576.53 1062.93 591.29 1038.98 635.85"/><ellipse class="cls-72" cx="1037.08" cy="639.21" rx="4.18" ry="4.27"/><polyline class="cls-63" points="393.72 106.39 329.84 219.83 338.2 234.59 314.25 279.14"/><ellipse class="cls-72" cx="312.35" cy="282.51" rx="4.18" ry="4.27"/><polyline class="cls-63" points="467.97 117.77 404.09 231.21 412.45 245.98 388.5 290.53"/><ellipse class="cls-72" cx="386.6" cy="293.89" rx="4.18" ry="4.27"/><polyline class="cls-63" points="281.93 967.64 341.16 851.59 357.84 850.85 381.71 806.25"/><path class="cls-72" d="M385.72,806.41a4.13,4.13,0,0,1-5.78-1.3,4.34,4.34,0,0,1,1.27-5.9,4.13,4.13,0,0,1,5.78,1.3A4.34,4.34,0,0,1,385.72,806.41Z"/><polyline class="cls-63" points="-98.35 1054.66 -39.12 938.61 -22.44 937.88 1.43 893.28"/><path class="cls-72" d="M5.44,893.44a4.13,4.13,0,0,1-5.78-1.31,4.33,4.33,0,0,1,1.28-5.9,4.13,4.13,0,0,1,5.77,1.3A4.34,4.34,0,0,1,5.44,893.44Z"/><polyline class="cls-63" points="470.65 529.55 512.19 455.79 528.88 455.76 554.54 412.21"/><ellipse class="cls-72" cx="556.62" cy="409.71" rx="4.18" ry="4.27"/><polyline class="cls-63" points="896.76 353.1 862.9 413.23 871.26 428 847.31 472.55"/><ellipse class="cls-72" cx="845.41" cy="475.91" rx="4.18" ry="4.27"/></g></g></svg>