<svg xmlns="http://www.w3.org/2000/svg" xmlns:xlink="http://www.w3.org/1999/xlink" viewBox="0 0 600 850"><defs><style>.cls-1{isolation:isolate;}.cls-2{fill:url(#Degradado_sin_nombre_85);}.cls-3,.cls-61,.cls-62,.cls-63,.cls-64,.cls-65,.cls-66,.cls-67,.cls-71,.cls-72,.cls-73,.cls-74,.cls-79{fill:none;}.cls-15,.cls-16,.cls-17,.cls-19,.cls-20,.cls-21,.cls-27,.cls-28,.cls-29,.cls-30,.cls-31,.cls-32,.cls-34,.cls-4,.cls-7,.cls-80,.cls-81,.cls-82,.cls-83,.cls-84,.cls-85,.cls-9{mix-blend-mode:multiply;}.cls-16,.cls-17,.cls-19,.cls-20,.cls-27,.cls-28,.cls-29,.cls-31,.cls-34,.cls-4,.cls-64,.cls-7,.cls-80,.cls-81,.cls-82,.cls-83,.cls-84,.cls-85{opacity:0.52;}.cls-4{fill:url(#Degradado_sin_nombre_50);}.cls-5{opacity:0.58;}.cls-10,.cls-11,.cls-12,.cls-13,.cls-14,.cls-18,.cls-22,.cls-23,.cls-24,.cls-25,.cls-26,.cls-33,.cls-35,.cls-6,.cls-61,.cls-62,.cls-63,.cls-64,.cls-65,.cls-66,.cls-67,.cls-70,.cls-71,.cls-72,.cls-73,.cls-74,.cls-8{mix-blend-mode:screen;}.cls-10,.cls-11,.cls-12,.cls-13,.cls-14,.cls-18,.cls-22,.cls-23,.cls-24,.cls-25,.cls-26,.cls-33,.cls-35,.cls-6,.cls-65,.cls-8{opacity:0.27;}.cls-6{fill:url(#Degradado_sin_nombre_58);}.cls-7{fill:url(#Degradado_sin_nombre_50-2);}.cls-8{fill:url(#Degradado_sin_nombre_58-2);}.cls-21,.cls-72,.cls-9{opacity:0.12;}.cls-9{fill:url(#Degradado_sin_nombre_45);}.cls-10{fill:url(#Degradado_sin_nombre_58-3);}.cls-11{fill:url(#Degradado_sin_nombre_58-4);}.cls-12{fill:url(#Degradado_sin_nombre_58-5);}.cls-13{fill:url(#Degradado_sin_nombre_58-6);}.cls-14{fill:url(#Degradado_sin_nombre_58-7);}.cls-15,.cls-30,.cls-61{opacity:0.1;}.cls-15{fill:url(#Degradado_sin_nombre_45-2);}.cls-16{fill:url(#Degradado_sin_nombre_50-3);}.cls-17{fill:url(#Degradado_sin_nombre_50-4);}.cls-18{fill:url(#Degradado_sin_nombre_58-8);}.cls-19{fill:url(#Degradado_sin_nombre_50-5);}.cls-20{fill:url(#Degradado_sin_nombre_50-6);}.cls-21{fill:url(#Degradado_sin_nombre_45-3);}.cls-22{fill:url(#Degradado_sin_nombre_58-9);}.cls-23{fill:url(#Degradado_sin_nombre_58-10);}.cls-24{fill:url(#Degradado_sin_nombre_58-11);}.cls-25{fill:url(#Degradado_sin_nombre_58-12);}.cls-26{fill:url(#Degradado_sin_nombre_58-13);}.cls-27{fill:url(#Degradado_sin_nombre_50-7);}.cls-28{fill:url(#Degradado_sin_nombre_50-8);}.cls-29{fill:url(#Degradado_sin_nombre_50-9);}.cls-30{fill:url(#Degradado_sin_nombre_45-4);}.cls-31{fill:url(#Degradado_sin_nombre_50-10);}.cls-32,.cls-62{opacity:0.19;}.cls-32{fill:url(#Degradado_sin_nombre_45-5);}.cls-33{fill:url(#Degradado_sin_nombre_58-14);}.cls-34{fill:url(#Degradado_sin_nombre_50-11);}.cls-35{fill:url(#Degradado_sin_nombre_58-15);}.cls-36,.cls-37,.cls-38,.cls-39,.cls-40,.cls-41,.cls-42,.cls-43,.cls-44,.cls-45,.cls-46,.cls-47,.cls-48,.cls-49,.cls-50,.cls-51,.cls-52,.cls-53,.cls-54,.cls-55,.cls-56,.cls-57,.cls-58,.cls-59,.cls-68,.cls-69,.cls-75,.cls-76,.cls-77,.cls-78{mix-blend-mode:color-dodge;}.cls-36{fill:url(#radial-gradient);}.cls-37{fill:url(#radial-gradient-2);}.cls-38{fill:url(#radial-gradient-3);}.cls-39{fill:url(#radial-gradient-4);}.cls-40{fill:url(#radial-gradient-5);}.cls-41{fill:url(#radial-gradient-6);}.cls-42{fill:url(#radial-gradient-7);}.cls-43{fill:url(#radial-gradient-8);}.cls-44{fill:url(#radial-gradient-9);}.cls-45{fill:url(#radial-gradient-10);}.cls-46{fill:url(#radial-gradient-11);}.cls-47{fill:url(#radial-gradient-12);}.cls-48{fill:url(#radial-gradient-13);}.cls-49{fill:url(#radial-gradient-14);}.cls-50{fill:url(#radial-gradient-15);}.cls-51{fill:url(#radial-gradient-16);}.cls-52{fill:url(#radial-gradient-17);}.cls-53{fill:url(#radial-gradient-18);}.cls-54{fill:url(#radial-gradient-19);}.cls-55{fill:url(#radial-gradient-20);}.cls-56{fill:url(#radial-gradient-21);}.cls-57{fill:url(#radial-gradient-22);}.cls-58{fill:url(#radial-gradient-23);}.cls-59{fill:url(#radial-gradient-24);}.cls-60{opacity:0.8;}.cls-61,.cls-62,.cls-63,.cls-64,.cls-65,.cls-66,.cls-67,.cls-71,.cls-72,.cls-73,.cls-74,.cls-79{stroke:#fff;stroke-miterlimit:10;}.cls-63{opacity:0.35;}.cls-66{opacity:0.45;}.cls-67{opacity:0.57;}.cls-68{fill:url(#radial-gradient-25);}.cls-69{fill:url(#radial-gradient-26);}.cls-70{fill:#fff;opacity:0.63;}.cls-71{opacity:0.53;}.cls-73{opacity:0.4;}.cls-74{opacity:0.48;}.cls-75{fill:url(#radial-gradient-27);}.cls-76{fill:url(#radial-gradient-28);}.cls-77{fill:url(#radial-gradient-29);}.cls-78{fill:url(#radial-gradient-30);}.cls-80{fill:url(#Degradado_sin_nombre_50-12);}.cls-81{fill:url(#Degradado_sin_nombre_50-13);}.cls-82{fill:url(#Degradado_sin_nombre_50-14);}.cls-83{fill:url(#Degradado_sin_nombre_50-15);}.cls-84{fill:url(#Degradado_sin_nombre_50-16);}.cls-85{fill:url(#Degradado_sin_nombre_50-17);}</style><linearGradient id="Degradado_sin_nombre_85" x1="-2851.96" y1="210.04" x2="-1806.66" y2="1255.34" gradientTransform="matrix(0.63, 0, 0, -1, 1769.56, 1156.09)" gradientUnits="userSpaceOnUse"><stop offset="0" stop-color="#7851b1"/><stop offset="0.08" stop-color="#64468f"/><stop offset="0.17" stop-color="#4f3a6d"/><stop offset="0.27" stop-color="#3e3151"/><stop offset="0.38" stop-color="#31293b"/><stop offset="0.49" stop-color="#27242c"/><stop offset="0.63" stop-color="#222123"/><stop offset="0.82" stop-color="#202020"/></linearGradient><linearGradient id="Degradado_sin_nombre_50" x1="-149.66" y1="455.54" x2="-298.43" y2="369.65" gradientTransform="translate(-105.77 449.16) rotate(-60)" gradientUnits="userSpaceOnUse"><stop offset="0" stop-color="#93278f"/><stop offset="1" stop-color="#7851b1"/></linearGradient><linearGradient id="Degradado_sin_nombre_58" x1="557.35" y1="123.61" x2="698.73" y2="123.61" gradientTransform="translate(-125 726) rotate(-90)" gradientUnits="userSpaceOnUse"><stop offset="0" stop-color="#ed1e79"/><stop offset="1" stop-color="#f0f"/></linearGradient><linearGradient id="Degradado_sin_nombre_50-2" x1="663.36" y1="186.16" x2="804.74" y2="186.16" gradientTransform="translate(-125 726) rotate(-90)" xlink:href="#Degradado_sin_nombre_50"/><linearGradient id="Degradado_sin_nombre_58-2" x1="450.69" y1="186.16" x2="592.07" y2="186.16" xlink:href="#Degradado_sin_nombre_58"/><linearGradient id="Degradado_sin_nombre_45" x1="557.35" y1="248.7" x2="698.73" y2="248.7" gradientTransform="translate(-125 726) rotate(-90)" gradientUnits="userSpaceOnUse"><stop offset="0" stop-color="#0061a5"/><stop offset="1" stop-color="#101c5c"/></linearGradient><linearGradient id="Degradado_sin_nombre_58-3" x1="663.36" y1="311.24" x2="804.74" y2="311.24" xlink:href="#Degradado_sin_nombre_58"/><linearGradient id="Degradado_sin_nombre_58-4" x1="557.35" y1="373.78" x2="698.73" y2="373.78" xlink:href="#Degradado_sin_nombre_58"/><linearGradient id="Degradado_sin_nombre_58-5" x1="664.01" y1="436.33" x2="805.39" y2="436.33" xlink:href="#Degradado_sin_nombre_58"/><linearGradient id="Degradado_sin_nombre_58-6" x1="664.01" y1="561.41" x2="805.39" y2="561.41" xlink:href="#Degradado_sin_nombre_58"/><linearGradient id="Degradado_sin_nombre_58-7" x1="664.01" y1="686.5" x2="805.39" y2="686.5" xlink:href="#Degradado_sin_nombre_58"/><linearGradient id="Degradado_sin_nombre_45-2" x1="557.35" y1="623.96" x2="698.73" y2="623.96" xlink:href="#Degradado_sin_nombre_45"/><linearGradient id="Degradado_sin_nombre_50-3" x1="557.35" y1="749.04" x2="698.73" y2="749.04" gradientTransform="translate(-125 726) rotate(-90)" xlink:href="#Degradado_sin_nombre_50"/><linearGradient id="Degradado_sin_nombre_50-4" x1="451.32" y1="561.41" x2="592.7" y2="561.41" gradientTransform="translate(-125 726) rotate(-90)" xlink:href="#Degradado_sin_nombre_50"/><linearGradient id="Degradado_sin_nombre_58-8" x1="557.35" y1="498.87" x2="698.73" y2="498.87" xlink:href="#Degradado_sin_nombre_58"/><linearGradient id="Degradado_sin_nombre_50-5" x1="-192.44" y1="153.24" x2="-51.06" y2="153.24" gradientTransform="translate(-125 726) rotate(-90)" xlink:href="#Degradado_sin_nombre_50"/><linearGradient id="Degradado_sin_nombre_50-6" x1="-86.43" y1="215.79" x2="54.95" y2="215.79" gradientTransform="translate(-125 726) rotate(-90)" xlink:href="#Degradado_sin_nombre_50"/><linearGradient id="Degradado_sin_nombre_45-3" x1="-192.44" y1="278.33" x2="-51.06" y2="278.33" xlink:href="#Degradado_sin_nombre_45"/><linearGradient id="Degradado_sin_nombre_58-9" x1="-86.43" y1="340.87" x2="54.95" y2="340.87" xlink:href="#Degradado_sin_nombre_58"/><linearGradient id="Degradado_sin_nombre_58-10" x1="-192.44" y1="403.41" x2="-51.06" y2="403.41" xlink:href="#Degradado_sin_nombre_58"/><linearGradient id="Degradado_sin_nombre_58-11" x1="-85.78" y1="465.96" x2="55.6" y2="465.96" xlink:href="#Degradado_sin_nombre_58"/><linearGradient id="Degradado_sin_nombre_58-12" x1="20.3" y1="528.5" x2="161.68" y2="528.5" xlink:href="#Degradado_sin_nombre_58"/><linearGradient id="Degradado_sin_nombre_58-13" x1="-85.78" y1="591.04" x2="55.6" y2="591.04" xlink:href="#Degradado_sin_nombre_58"/><linearGradient id="Degradado_sin_nombre_50-7" x1="20.3" y1="653.59" x2="161.68" y2="653.59" gradientTransform="translate(-125 726) rotate(-90)" xlink:href="#Degradado_sin_nombre_50"/><linearGradient id="Degradado_sin_nombre_50-8" x1="20.3" y1="778.67" x2="161.68" y2="778.67" gradientTransform="translate(-125 726) rotate(-90)" xlink:href="#Degradado_sin_nombre_50"/><linearGradient id="Degradado_sin_nombre_50-9" x1="-85.78" y1="716.13" x2="55.6" y2="716.13" gradientTransform="translate(-125 726) rotate(-90)" xlink:href="#Degradado_sin_nombre_50"/><linearGradient id="Degradado_sin_nombre_45-4" x1="-192.44" y1="653.59" x2="-51.06" y2="653.59" xlink:href="#Degradado_sin_nombre_45"/><linearGradient id="Degradado_sin_nombre_50-10" x1="-192.44" y1="778.67" x2="-51.06" y2="778.67" gradientTransform="translate(-125 726) rotate(-90)" xlink:href="#Degradado_sin_nombre_50"/><linearGradient id="Degradado_sin_nombre_45-5" x1="-192.44" y1="528.5" x2="-51.06" y2="528.5" xlink:href="#Degradado_sin_nombre_45"/><linearGradient id="Degradado_sin_nombre_58-14" x1="284.96" y1="119.03" x2="426.34" y2="119.03" xlink:href="#Degradado_sin_nombre_58"/><linearGradient id="Degradado_sin_nombre_50-11" x1="72.22" y1="119.03" x2="213.61" y2="119.03" gradientTransform="translate(-125 726) rotate(-90)" xlink:href="#Degradado_sin_nombre_50"/><linearGradient id="Degradado_sin_nombre_58-15" x1="276" y1="770.93" x2="417.39" y2="770.93" xlink:href="#Degradado_sin_nombre_58"/><radialGradient id="radial-gradient" cx="1385.72" cy="-86.15" r="5.42" gradientTransform="matrix(0, 1.11, 1.14, 0, 90.67, -1227.43)" gradientUnits="userSpaceOnUse"><stop offset="0" stop-color="#fff"/><stop offset="0.29" stop-color="#a6a6a6"/><stop offset="0.54" stop-color="#5f5f5f"/><stop offset="0.75" stop-color="#2b2b2b"/><stop offset="0.91" stop-color="#0c0c0c"/><stop offset="1"/></radialGradient><radialGradient id="radial-gradient-2" cx="1684.25" cy="-55.13" r="5.42" xlink:href="#radial-gradient"/><radialGradient id="radial-gradient-3" cx="1777.91" cy="90.23" r="5.42" xlink:href="#radial-gradient"/><radialGradient id="radial-gradient-4" cx="1005.04" cy="-248.23" r="5.12" gradientTransform="matrix(0.63, 0.93, 0.95, -0.61, -240.03, -809.36)" xlink:href="#radial-gradient"/><radialGradient id="radial-gradient-5" cx="979.64" cy="68.96" r="5.12" gradientTransform="matrix(0.63, 0.93, 0.95, -0.61, -240.03, -809.36)" xlink:href="#radial-gradient"/><radialGradient id="radial-gradient-6" cx="1077.24" cy="110.93" r="5.12" gradientTransform="matrix(0.63, 0.93, 0.95, -0.61, -240.03, -809.36)" xlink:href="#radial-gradient"/><radialGradient id="radial-gradient-7" cx="1146.64" cy="-83.55" r="5.12" gradientTransform="matrix(0.63, 0.93, 0.95, -0.61, -240.03, -809.36)" xlink:href="#radial-gradient"/><radialGradient id="radial-gradient-8" cx="892.99" cy="-46.85" r="5.42" gradientTransform="matrix(0.63, 0.93, 0.95, -0.61, -240.03, -809.36)" xlink:href="#radial-gradient"/><radialGradient id="radial-gradient-9" cx="1113.19" cy="-222.16" r="5.42" gradientTransform="matrix(0.63, 0.93, 0.95, -0.61, -240.03, -809.36)" xlink:href="#radial-gradient"/><radialGradient id="radial-gradient-10" cx="1466.52" cy="-171.98" r="5.42" gradientTransform="matrix(0.63, 0.93, 0.95, -0.61, -240.03, -809.36)" xlink:href="#radial-gradient"/><radialGradient id="radial-gradient-11" cx="1749.88" cy="342.12" r="9.39" xlink:href="#radial-gradient"/><radialGradient id="radial-gradient-12" cx="1525.29" cy="-46.43" r="9.39" xlink:href="#radial-gradient"/><radialGradient id="radial-gradient-13" cx="1714.61" cy="176.04" r="9.39" xlink:href="#radial-gradient"/><radialGradient id="radial-gradient-14" cx="1505.72" cy="462.92" r="9.39" xlink:href="#radial-gradient"/><radialGradient id="radial-gradient-15" cx="1411.14" cy="357.98" r="5.42" xlink:href="#radial-gradient"/><radialGradient id="radial-gradient-16" cx="1426.21" cy="395.08" r="5.42" xlink:href="#radial-gradient"/><radialGradient id="radial-gradient-17" cx="1412.3" cy="405.51" r="5.42" xlink:href="#radial-gradient"/><radialGradient id="radial-gradient-18" cx="1372.47" cy="380.59" r="22.39" xlink:href="#radial-gradient"/><radialGradient id="radial-gradient-19" cx="1437.18" cy="426.69" r="5.42" gradientTransform="matrix(-0.75, -0.84, -0.85, 0.73, 1768.78, 880.9)" xlink:href="#radial-gradient"/><radialGradient id="radial-gradient-20" cx="1397.36" cy="401.77" r="22.39" gradientTransform="matrix(-0.75, -0.84, -0.85, 0.73, 1768.78, 880.9)" xlink:href="#radial-gradient"/><radialGradient id="radial-gradient-21" cx="1779.18" cy="458.73" r="5.42" gradientTransform="matrix(0, -1.11, -1.14, 0, 868.15, 2807.6)" xlink:href="#radial-gradient"/><radialGradient id="radial-gradient-22" cx="1794.25" cy="495.83" r="5.42" gradientTransform="matrix(0, -1.11, -1.14, 0, 868.15, 2807.6)" xlink:href="#radial-gradient"/><radialGradient id="radial-gradient-23" cx="1780.34" cy="506.26" r="5.42" gradientTransform="matrix(0, -1.11, -1.14, 0, 868.15, 2807.6)" xlink:href="#radial-gradient"/><radialGradient id="radial-gradient-24" cx="1740.51" cy="481.34" r="22.39" gradientTransform="matrix(0, -1.11, -1.14, 0, 868.15, 2807.6)" xlink:href="#radial-gradient"/><radialGradient id="radial-gradient-25" cx="110.38" cy="-9.79" r="13.99" gradientTransform="translate(90.67 101.32) rotate(-90) scale(1.11 1.14)" xlink:href="#radial-gradient"/><radialGradient id="radial-gradient-26" cx="-36.86" cy="26.55" r="13.99" gradientTransform="translate(90.67 101.32) rotate(-90) scale(1.11 1.14)" xlink:href="#radial-gradient"/><radialGradient id="radial-gradient-27" cx="110.38" cy="424.19" r="13.99" gradientTransform="translate(90.67 101.32) rotate(-90) scale(1.11 1.14)" xlink:href="#radial-gradient"/><radialGradient id="radial-gradient-28" cx="-36.86" cy="315.18" r="13.99" gradientTransform="translate(90.67 101.32) rotate(-90) scale(1.11 1.14)" xlink:href="#radial-gradient"/><radialGradient id="radial-gradient-29" cx="-617.71" cy="-94.16" r="13.99" gradientTransform="translate(90.67 101.32) rotate(-90) scale(1.11 1.14)" xlink:href="#radial-gradient"/><radialGradient id="radial-gradient-30" cx="-628.96" cy="387.55" r="13.99" gradientTransform="translate(90.67 101.32) rotate(-90) scale(1.11 1.14)" xlink:href="#radial-gradient"/><linearGradient id="Degradado_sin_nombre_50-12" x1="437.92" y1="349.92" x2="178.78" y2="200.3" gradientTransform="translate(1093.01 820.81) rotate(120)" xlink:href="#Degradado_sin_nombre_50"/><linearGradient id="Degradado_sin_nombre_50-13" x1="537.37" y1="-54.91" x2="278.22" y2="-204.53" xlink:href="#Degradado_sin_nombre_50"/><linearGradient id="Degradado_sin_nombre_50-14" x1="716.72" y1="-115.18" x2="457.58" y2="-264.8" gradientTransform="translate(753.09 -533.46) rotate(120)" xlink:href="#Degradado_sin_nombre_50"/><linearGradient id="Degradado_sin_nombre_50-15" x1="389.07" y1="398.71" x2="240.3" y2="312.82" xlink:href="#Degradado_sin_nombre_50"/><linearGradient id="Degradado_sin_nombre_50-16" x1="601.28" y1="465.16" x2="452.5" y2="379.27" xlink:href="#Degradado_sin_nombre_50"/><linearGradient id="Degradado_sin_nombre_50-17" x1="23.46" y1="146.11" x2="-125.32" y2="60.21" xlink:href="#Degradado_sin_nombre_50"/></defs><g class="cls-1"><g id="Capa_1" data-name="Capa 1"><rect class="cls-2" x="-152.86" y="84.76" width="894.93" height="677.3" transform="translate(718.01 128.8) rotate(90)"/><rect class="cls-3" x="-258.33" y="32.39" width="1140.84" height="777" transform="translate(-108.8 732.98) rotate(-90)"/><polygon class="cls-4" points="275.53 913.28 287.7 946.29 3.5 785.68 -8.66 752.67 275.53 913.28"/><g class="cls-5"><polygon class="cls-6" points="-63.93 62.61 -63.93 133.3 -1.39 168.65 61.16 133.3 61.16 62.61 -1.39 27.27 -63.93 62.61"/><polygon class="cls-7" points="-1.39 -43.4 -1.39 27.29 61.16 62.64 123.7 27.29 123.7 -43.4 61.16 -78.74 -1.39 -43.4"/><polygon class="cls-8" points="-1.39 169.27 -1.39 239.96 61.16 275.31 123.7 239.96 123.7 169.27 61.16 133.93 -1.39 169.27"/><polygon class="cls-9" points="61.16 62.61 61.16 133.3 123.7 168.65 186.24 133.3 186.24 62.61 123.7 27.27 61.16 62.61"/><polygon class="cls-10" points="123.7 -43.4 123.7 27.29 186.24 62.64 248.78 27.29 248.78 -43.4 186.24 -78.74 123.7 -43.4"/><polygon class="cls-11" points="186.24 62.61 186.24 133.3 248.78 168.65 311.33 133.3 311.33 62.61 248.78 27.27 186.24 62.61"/><polygon class="cls-12" points="248.78 -44.05 248.78 26.64 311.33 61.99 373.87 26.64 373.87 -44.05 311.33 -79.39 248.78 -44.05"/><polygon class="cls-13" points="373.87 -44.05 373.87 26.64 436.41 61.99 498.96 26.64 498.96 -44.05 436.41 -79.39 373.87 -44.05"/><polygon class="cls-14" points="498.96 -44.05 498.96 26.64 561.5 61.99 624.04 26.64 624.04 -44.05 561.5 -79.39 498.96 -44.05"/><polygon class="cls-15" points="436.41 62.61 436.41 133.3 498.96 168.65 561.5 133.3 561.5 62.61 498.96 27.27 436.41 62.61"/><polygon class="cls-16" points="561.5 62.61 561.5 133.3 624.04 168.65 686.59 133.3 686.59 62.61 624.04 27.27 561.5 62.61"/><polygon class="cls-17" points="373.87 168.64 373.87 239.33 436.41 274.68 498.95 239.33 498.95 168.64 436.41 133.3 373.87 168.64"/><polygon class="cls-18" points="311.32 62.61 311.32 133.3 373.87 168.65 436.41 133.3 436.41 62.61 373.87 27.27 311.32 62.61"/></g><g class="cls-5"><polygon class="cls-19" points="-34.3 812.4 -34.3 883.09 28.24 918.44 90.78 883.09 90.78 812.4 28.24 777.06 -34.3 812.4"/><polygon class="cls-20" points="28.24 706.39 28.24 777.08 90.78 812.43 153.33 777.08 153.33 706.39 90.78 671.05 28.24 706.39"/><polygon class="cls-21" points="90.78 812.4 90.78 883.09 153.33 918.44 215.87 883.09 215.87 812.4 153.33 777.06 90.78 812.4"/><polygon class="cls-22" points="153.33 706.39 153.33 777.08 215.87 812.43 278.41 777.08 278.41 706.39 215.87 671.05 153.33 706.39"/><polygon class="cls-23" points="215.87 812.4 215.87 883.09 278.41 918.44 340.96 883.09 340.96 812.4 278.41 777.06 215.87 812.4"/><polygon class="cls-24" points="278.41 705.74 278.41 776.43 340.96 811.78 403.5 776.43 403.5 705.74 340.96 670.4 278.41 705.74"/><polygon class="cls-25" points="340.96 599.67 340.96 670.36 403.5 705.7 466.04 670.36 466.04 599.67 403.5 564.32 340.96 599.67"/><polygon class="cls-26" points="403.5 705.74 403.5 776.43 466.04 811.78 528.59 776.43 528.59 705.74 466.04 670.4 403.5 705.74"/><polygon class="cls-27" points="466.04 599.67 466.04 670.36 528.59 705.7 591.13 670.36 591.13 599.67 528.59 564.32 466.04 599.67"/><polygon class="cls-28" points="591.13 599.67 591.13 670.36 653.67 705.7 716.22 670.36 716.22 599.67 653.67 564.32 591.13 599.67"/><polygon class="cls-29" points="528.59 705.74 528.59 776.43 591.13 811.78 653.67 776.43 653.67 705.74 591.13 670.4 528.59 705.74"/><polygon class="cls-30" points="466.04 812.4 466.04 883.09 528.59 918.44 591.13 883.09 591.13 812.4 528.59 777.06 466.04 812.4"/><polygon class="cls-31" points="591.13 812.4 591.13 883.09 653.67 918.44 716.22 883.09 716.22 812.4 653.67 777.06 591.13 812.4"/><polygon class="cls-32" points="340.95 812.4 340.95 883.09 403.5 918.44 466.04 883.09 466.04 812.4 403.5 777.06 340.95 812.4"/></g><g class="cls-5"><polygon class="cls-33" points="-68.51 335.01 -68.51 405.7 -5.97 441.04 56.58 405.7 56.58 335.01 -5.97 299.66 -68.51 335.01"/><polygon class="cls-34" points="-68.51 547.74 -68.51 618.43 -5.97 653.77 56.58 618.43 56.58 547.74 -5.97 512.39 -68.51 547.74"/></g><g class="cls-5"><polygon class="cls-35" points="583.38 343.96 583.38 414.65 645.93 450 708.47 414.65 708.47 343.96 645.93 308.62 583.38 343.96"/></g><ellipse class="cls-36" cx="-7.26" cy="314.51" rx="9.88" ry="9.67"/><ellipse class="cls-37" cx="28" cy="646.69" rx="9.88" ry="9.67"/><ellipse class="cls-38" cx="193.24" cy="750.91" rx="9.88" ry="9.67"/><path class="cls-39" d="M161.32,282.93a9,9,0,0,0,2.62-12.68A9.47,9.47,0,0,0,151,267.68a9,9,0,0,0-2.63,12.68A9.47,9.47,0,0,0,161.32,282.93Z"/><path class="cls-40" d="M445.87,64.34a9,9,0,0,0,2.62-12.68,9.48,9.48,0,0,0-13-2.57,9,9,0,0,0-2.62,12.68A9.48,9.48,0,0,0,445.87,64.34Z"/><path class="cls-41" d="M546.94,129a9,9,0,0,0,2.62-12.69,9.48,9.48,0,0,0-13-2.57A9,9,0,0,0,534,126.47,9.48,9.48,0,0,0,546.94,129Z"/><path class="cls-42" d="M406.29,313a9,9,0,0,0,2.63-12.68,9.48,9.48,0,0,0-13-2.57,9,9,0,0,0-2.63,12.68A9.46,9.46,0,0,0,406.29,313Z"/><path class="cls-43" d="M282,55.63a9.55,9.55,0,0,0,2.77-13.41,10,10,0,0,0-13.7-2.72,9.55,9.55,0,0,0-2.77,13.41A10,10,0,0,0,282,55.63Z"/><path class="cls-44" d="M254.24,367.63A9.55,9.55,0,0,0,257,354.22a10,10,0,0,0-13.7-2.72,9.56,9.56,0,0,0-2.78,13.41A10,10,0,0,0,254.24,367.63Z"/><path class="cls-45" d="M523.75,664.43A9.56,9.56,0,0,0,526.53,651a10,10,0,0,0-13.7-2.71,9.55,9.55,0,0,0-2.78,13.41A10,10,0,0,0,523.75,664.43Z"/><ellipse class="cls-46" cx="479.59" cy="719.72" rx="17.13" ry="16.77"/><ellipse class="cls-47" cx="37.88" cy="469.81" rx="17.13" ry="16.77"/><ellipse class="cls-48" cx="290.79" cy="680.48" rx="17.13" ry="16.77"/><ellipse class="cls-49" cx="616.91" cy="448.04" rx="17.13" ry="16.77"/><path class="cls-50" d="M497.62,352.47a9.68,9.68,0,1,0-9.88-9.68A9.78,9.78,0,0,0,497.62,352.47Z"/><ellipse class="cls-51" cx="539.79" cy="359.56" rx="9.88" ry="9.67"/><ellipse class="cls-52" cx="551.65" cy="344.08" rx="9.88" ry="9.67"/><ellipse class="cls-53" cx="523.32" cy="299.77" rx="40.85" ry="39.99"/><path class="cls-54" d="M319.66-14.69A9.52,9.52,0,0,0,318.75-1a10,10,0,0,0,13.95.89,9.53,9.53,0,0,0,.9-13.66A10,10,0,0,0,319.66-14.69Z"/><ellipse class="cls-55" cx="377.34" cy="7.57" rx="40.85" ry="39.99"/><path class="cls-56" d="M346.66,818.17a9.68,9.68,0,1,0,9.89,9.67A9.77,9.77,0,0,0,346.66,818.17Z"/><ellipse class="cls-57" cx="304.49" cy="811.07" rx="9.88" ry="9.67"/><ellipse class="cls-58" cx="292.63" cy="826.55" rx="9.88" ry="9.67"/><ellipse class="cls-59" cx="320.96" cy="870.87" rx="40.85" ry="39.99"/><g class="cls-60"><polygon class="cls-61" points="-44.39 1.85 -44.39 48.54 -3.08 71.89 38.23 48.54 38.23 1.85 -3.08 -21.5 -44.39 1.85"/><polygon class="cls-62" points="-3.08 -68.21 -3.08 -21.52 38.23 1.82 79.54 -21.52 79.54 -68.21 38.23 -91.56 -3.08 -68.21"/><polygon class="cls-63" points="38.23 1.85 38.23 48.54 79.54 71.89 120.85 48.54 120.85 1.85 79.54 -21.5 38.23 1.85"/><polygon class="cls-64" points="79.54 -68.21 79.54 -21.52 120.85 1.82 162.16 -21.52 162.16 -68.21 120.85 -91.56 79.54 -68.21"/><polygon class="cls-65" points="162.16 -68.21 162.16 -21.52 203.47 1.82 244.78 -21.52 244.78 -68.21 203.47 -91.56 162.16 -68.21"/><polygon class="cls-65" points="120.85 1.85 120.85 48.54 162.16 71.89 203.47 48.54 203.47 1.85 162.16 -21.5 120.85 1.85"/><polygon class="cls-61" points="79.54 72.3 79.54 118.99 120.85 142.33 162.16 118.99 162.16 72.3 120.85 48.95 79.54 72.3"/><polygon class="cls-66" points="162.16 72.3 162.16 118.99 203.47 142.33 244.78 118.99 244.78 72.3 203.47 48.95 162.16 72.3"/><polygon class="cls-67" points="38.23 142.33 38.23 189.02 79.53 212.37 120.84 189.02 120.84 142.33 79.53 118.98 38.23 142.33"/><polygon class="cls-65" points="-44.39 142.33 -44.39 189.02 -3.08 212.37 38.23 189.02 38.23 142.33 -3.08 118.98 -44.39 142.33"/><polygon class="cls-62" points="-3.08 72.3 -3.08 118.99 38.23 142.33 79.53 118.99 79.53 72.3 38.23 48.95 -3.08 72.3"/></g><ellipse class="cls-68" cx="79.54" cy="-21.5" rx="25.52" ry="24.98"/><ellipse class="cls-69" cx="120.84" cy="142.33" rx="25.52" ry="24.98"/><path class="cls-70" d="M38.23,47a1.93,1.93,0,1,0,2,1.93A2,2,0,0,0,38.23,47Z"/><path class="cls-70" d="M79.53,117.05a1.93,1.93,0,1,0,2,1.93A2,2,0,0,0,79.53,117.05Z"/><path class="cls-70" d="M120.84-.11a2,2,0,0,0-2,1.93,2,2,0,0,0,3.95,0A2,2,0,0,0,120.84-.11Z"/><path class="cls-70" d="M162.16,70a1.94,1.94,0,1,0,2,1.93A2,2,0,0,0,162.16,70Z"/><path class="cls-70" d="M203.47-.11a2,2,0,0,0-2,1.93,2,2,0,0,0,3.95,0A2,2,0,0,0,203.47-.11Z"/><path class="cls-70" d="M203.47,140.4a1.93,1.93,0,1,0,2,1.93A2,2,0,0,0,203.47,140.4Z"/><path class="cls-70" d="M38.23,140.4a1.93,1.93,0,1,0,2,1.93A2,2,0,0,0,38.23,140.4Z"/><ellipse class="cls-70" cx="79.53" cy="212.37" rx="1.97" ry="1.93"/><ellipse class="cls-70" cx="79.54" cy="71.88" rx="3.06" ry="2.99"/><path class="cls-70" d="M120.84,188a3,3,0,1,0,3.06,3A3,3,0,0,0,120.84,188Z"/><ellipse class="cls-70" cx="120.84" cy="48.95" rx="3.06" ry="2.99"/><ellipse class="cls-70" cx="162.16" cy="118.98" rx="3.06" ry="2.99"/><ellipse class="cls-70" cx="203.47" cy="48.95" rx="3.06" ry="2.99"/><path class="cls-70" d="M38.23-1.17a3,3,0,0,0-3.06,3,3.06,3.06,0,0,0,6.11,0A3,3,0,0,0,38.23-1.17Z"/><ellipse class="cls-70" cx="38.23" cy="189.04" rx="3.06" ry="2.99"/><g class="cls-60"><polygon class="cls-65" points="407.65 72.3 407.65 118.99 448.96 142.33 490.27 118.99 490.27 72.3 448.96 48.95 407.65 72.3"/><polygon class="cls-71" points="448.96 2.28 448.96 48.97 490.27 72.31 531.58 48.97 531.58 2.28 490.27 -21.07 448.96 2.28"/><polygon class="cls-65" points="448.96 142.75 448.96 189.44 490.27 212.78 531.58 189.44 531.58 142.75 490.27 119.4 448.96 142.75"/><polygon class="cls-72" points="490.27 72.3 490.27 118.99 531.58 142.33 572.89 118.99 572.89 72.3 531.58 48.95 490.27 72.3"/><polygon class="cls-65" points="531.58 2.28 531.58 48.97 572.89 72.31 614.2 48.97 614.2 2.28 572.89 -21.07 531.58 2.28"/><polygon class="cls-73" points="572.89 -68.21 572.89 -21.52 614.2 1.82 655.5 -21.52 655.5 -68.21 614.2 -91.56 572.89 -68.21"/><polygon class="cls-74" points="572.89 72.3 572.89 118.99 614.2 142.33 655.5 118.99 655.5 72.3 614.2 48.95 572.89 72.3"/></g><ellipse class="cls-75" cx="572.89" cy="-21.5" rx="25.52" ry="24.98"/><ellipse class="cls-76" cx="448.96" cy="142.33" rx="25.52" ry="24.98"/><ellipse class="cls-70" cx="448.96" cy="48.95" rx="2.16" ry="2.12"/><ellipse class="cls-70" cx="490.27" cy="119.4" rx="2.09" ry="2.05"/><path class="cls-70" d="M531.58,186.05a3,3,0,1,0,3,3A3,3,0,0,0,531.58,186.05Z"/><path class="cls-70" d="M531.58,139.34a3,3,0,1,0,3,3A3,3,0,0,0,531.58,139.34Z"/><path class="cls-70" d="M572.89,117.47a1.93,1.93,0,1,0,2,1.93A2,2,0,0,0,572.89,117.47Z"/><ellipse class="cls-70" cx="572.89" cy="72.32" rx="3.06" ry="2.99"/><path class="cls-70" d="M531.58,46.91a2,2,0,1,0,2.08,2A2.06,2.06,0,0,0,531.58,46.91Z"/><path class="cls-70" d="M531.58-.61a3,3,0,0,0-3.06,3,3.06,3.06,0,0,0,6.11,0A3,3,0,0,0,531.58-.61Z"/><ellipse class="cls-70" cx="490.27" cy="72.32" rx="3.06" ry="2.99"/><ellipse class="cls-70" cx="448.96" cy="189.04" rx="3.06" ry="2.99"/><g class="cls-60"><polygon class="cls-63" points="-57.68 812.02 -57.68 858.71 -16.37 882.05 24.94 858.71 24.94 812.02 -16.37 788.67 -57.68 812.02"/><polygon class="cls-64" points="-16.37 741.96 -16.37 788.65 24.94 811.99 66.25 788.65 66.25 741.96 24.94 718.61 -16.37 741.96"/><polygon class="cls-65" points="66.25 741.96 66.25 788.65 107.56 811.99 148.87 788.65 148.87 741.96 107.56 718.61 66.25 741.96"/><polygon class="cls-65" points="24.94 812.02 24.94 858.71 66.25 882.05 107.56 858.71 107.56 812.02 66.25 788.67 24.94 812.02"/></g><ellipse class="cls-77" cx="-16.37" cy="788.67" rx="25.52" ry="24.98"/><path class="cls-70" d="M24.94,810.06a1.93,1.93,0,1,0,2,1.93A2,2,0,0,0,24.94,810.06Z"/><path class="cls-70" d="M24.94,716.68a1.93,1.93,0,1,0,2,1.93A2,2,0,0,0,24.94,716.68Z"/><path class="cls-70" d="M107.56,810.06a1.93,1.93,0,1,0,2,1.93A2,2,0,0,0,107.56,810.06Z"/><path class="cls-70" d="M107.56,716.68a1.93,1.93,0,1,0,2,1.93A2,2,0,0,0,107.56,716.68Z"/><ellipse class="cls-70" cx="66.25" cy="788.67" rx="3.06" ry="2.99"/><ellipse class="cls-70" cx="66.25" cy="742.35" rx="3.06" ry="2.99"/><g class="cls-60"><polygon class="cls-71" points="407.3 824.96 407.3 871.65 448.61 895 489.92 871.65 489.92 824.96 448.61 801.62 407.3 824.96"/><polygon class="cls-65" points="489.92 824.96 489.92 871.65 531.23 895 572.54 871.65 572.54 824.96 531.23 801.62 489.92 824.96"/><polygon class="cls-73" points="531.23 754.47 531.23 801.16 572.54 824.5 613.85 801.16 613.85 754.47 572.54 731.12 531.23 754.47"/><polygon class="cls-61" points="572.54 824.53 572.54 871.22 613.85 894.57 655.16 871.22 655.16 824.53 613.85 801.18 572.54 824.53"/></g><ellipse class="cls-78" cx="531.23" cy="801.19" rx="25.52" ry="24.98"/><path class="cls-70" d="M572.54,729.19a1.93,1.93,0,1,0,2,1.93A2,2,0,0,0,572.54,729.19Z"/><path class="cls-70" d="M572.54,821.51a3,3,0,1,0,3.06,3A3,3,0,0,0,572.54,821.51Z"/><path class="cls-70" d="M531.23,751.63a3,3,0,1,0,3.06,3A3,3,0,0,0,531.23,751.63Z"/><ellipse class="cls-70" cx="489.92" cy="825.07" rx="3.06" ry="2.99"/><path class="cls-70" d="M448.61,798.62a3,3,0,1,0,3.06,3A3,3,0,0,0,448.61,798.62Z"/><polyline class="cls-65" points="764.68 773.03 651.24 709.14 636.47 717.51 591.92 693.55"/><ellipse class="cls-79" cx="588.56" cy="691.65" rx="4.27" ry="4.18"/><polygon class="cls-80" points="463.67 839.15 442.48 781.65 937.51 1061.41 958.71 1118.91 463.67 839.15"/><polygon class="cls-81" points="222.71 142.28 243.91 199.78 -251.13 -79.98 -272.32 -137.48 222.71 142.28"/><polygon class="cls-82" points="387.12 -41.13 365.93 -98.62 860.96 181.14 882.16 238.63 387.12 -41.13"/><polygon class="cls-83" points="495.69 418.33 507.85 451.34 223.66 290.73 211.49 257.72 495.69 418.33"/><polygon class="cls-84" points="659.33 267.79 671.5 300.8 387.3 140.19 375.14 107.18 659.33 267.79"/><polygon class="cls-85" points="94.12 608.65 106.29 641.66 -177.91 481.05 -190.08 448.04 94.12 608.65"/><polyline class="cls-65" points="-113.79 478.27 -0.34 542.16 14.42 533.79 58.97 557.75"/><ellipse class="cls-79" cx="62.33" cy="559.65" rx="4.27" ry="4.18"/><ellipse class="cls-79" cx="-2.66" cy="604.38" rx="4.27" ry="4.18"/><polyline class="cls-65" points="-76.41 468.2 37.03 532.09 51.8 523.72 96.35 547.67"/><ellipse class="cls-79" cx="99.71" cy="549.57" rx="4.27" ry="4.18"/><ellipse class="cls-79" cx="601.45" cy="217.15" rx="4.27" ry="4.18"/><polyline class="cls-65" points="766.19 372.78 652.75 308.89 637.99 317.26 593.43 293.3"/><ellipse class="cls-79" cx="590.07" cy="291.4" rx="4.27" ry="4.18"/><polyline class="cls-65" points="-83.68 186.74 32.37 245.96 33.11 262.65 77.71 286.52"/><path class="cls-79" d="M77.55,290.52a4.13,4.13,0,0,1,1.3-5.78,4.33,4.33,0,0,1,5.9,1.28,4.13,4.13,0,0,1-1.3,5.78A4.33,4.33,0,0,1,77.55,290.52Z"/><polyline class="cls-65" points="354.41 375.45 428.17 416.99 428.2 433.69 471.75 459.35"/><ellipse class="cls-79" cx="474.25" cy="461.42" rx="4.27" ry="4.18"/><polyline class="cls-65" points="530.86 801.57 470.73 767.7 455.96 776.07 411.41 752.11"/><ellipse class="cls-79" cx="408.05" cy="750.21" rx="4.27" ry="4.18"/></g></g></svg>