<svg xmlns="http://www.w3.org/2000/svg" viewBox="0 0 640 640"><defs><style>.cls-1,.cls-2,.cls-4{fill:none;}.cls-1,.cls-2,.cls-3{stroke:#000;}.cls-1,.cls-2,.cls-3,.cls-4{stroke-miterlimit:10;stroke-width:40px;}.cls-2,.cls-4{stroke-linecap:round;}.cls-4{stroke:#fff;}</style></defs><g id="home-fill"><path class="cls-1" d="M521.06,594.14H118.94a35.56,35.56,0,0,1-35.57-35.57v-321a35.58,35.58,0,0,1,13.75-28.09L298.18,53.33a35.6,35.6,0,0,1,43.64,0L542.88,209.49a35.58,35.58,0,0,1,13.75,28.09v321A35.56,35.56,0,0,1,521.06,594.14Z"/><line class="cls-2" x1="213.82" y1="512.62" x2="426.18" y2="512.62"/><line class="cls-2" x1="213.82" y1="512.62" x2="426.18" y2="512.62"/><path class="cls-1" d="M521.06,594.14H118.94a35.56,35.56,0,0,1-35.57-35.57v-321a35.58,35.58,0,0,1,13.75-28.09L298.18,53.33a35.6,35.6,0,0,1,43.64,0L542.88,209.49a35.58,35.58,0,0,1,13.75,28.09v321A35.56,35.56,0,0,1,521.06,594.14Z"/><path class="cls-3" d="M521.06,594.14H118.94a35.56,35.56,0,0,1-35.57-35.57v-321a35.58,35.58,0,0,1,13.75-28.09L298.18,53.33a35.6,35.6,0,0,1,43.64,0L542.88,209.49a35.58,35.58,0,0,1,13.75,28.09v321A35.56,35.56,0,0,1,521.06,594.14Z"/><line class="cls-2" x1="213.82" y1="512.62" x2="426.18" y2="512.62"/><line class="cls-4" x1="213.82" y1="512.62" x2="426.18" y2="512.62"/></g></svg>