<svg id="portfolio" xmlns="http://www.w3.org/2000/svg" viewBox="0 0 640 640"><defs><style>.cls-1{fill:none;stroke:#000;stroke-miterlimit:10;stroke-width:40px;}</style></defs><path class="cls-1" d="M594.47,182.21l-268.37,122a6.66,6.66,0,0,1-5.46,0l-275-122a6.68,6.68,0,0,1,0-12.21L320.65,49a6.67,6.67,0,0,1,5.43,0L594.45,170.06A6.67,6.67,0,0,1,594.47,182.21Z"/><path class="cls-1" d="M594.45,313.47,449.53,248.09,356,290.62a79.69,79.69,0,0,1-65.29.3l-96.58-42.83L45.6,313.45a6.67,6.67,0,0,0,0,12.2L295.73,436.58a67.33,67.33,0,0,0,55.17-.25l243.57-110.7A6.68,6.68,0,0,0,594.45,313.47Z"/><path class="cls-1" d="M594.45,460.57l-149-67.22L326.1,447.6a6.66,6.66,0,0,1-5.46,0l-122.4-54.28L45.6,460.54a6.68,6.68,0,0,0,0,12.21L288.5,580.47a85,85,0,0,0,69.6-.32L594.47,472.72A6.67,6.67,0,0,0,594.45,460.57Z"/></svg>