<svg xmlns="http://www.w3.org/2000/svg" viewBox="0 0 640 640"><defs><style>.cls-1,.cls-2{fill:none;}.cls-1{stroke:#fff;}.cls-1,.cls-2,.cls-3{stroke-miterlimit:10;stroke-width:40px;}.cls-2,.cls-3{stroke:#000;}</style></defs><g id="portfolio-fill"><path class="cls-1" d="M594.47,182.21l-268.37,122a6.66,6.66,0,0,1-5.46,0l-275-122a6.68,6.68,0,0,1,0-12.21L320.65,49a6.67,6.67,0,0,1,5.43,0L594.45,170.06A6.67,6.67,0,0,1,594.47,182.21Z"/><path class="cls-2" d="M594.47,182.21l-268.37,122a6.66,6.66,0,0,1-5.46,0l-275-122a6.68,6.68,0,0,1,0-12.21L320.65,49a6.67,6.67,0,0,1,5.43,0L594.45,170.06A6.67,6.67,0,0,1,594.47,182.21Z"/><path class="cls-1" d="M326.1,304.18a6.66,6.66,0,0,1-5.46,0Z"/><path class="cls-3" d="M594.45,313.47l-64.07-28.91-175,79.71a75.34,75.34,0,0,1-62.34,0L114.32,283.2,45.6,313.45a6.67,6.67,0,0,0,0,12.2L296.83,437.07a64.65,64.65,0,0,0,53-.24l244.67-111.2A6.68,6.68,0,0,0,594.45,313.47Z"/><path class="cls-3" d="M594.45,463.18l-64.07-28.91-175,79.7a75.31,75.31,0,0,1-62.34,0L114.32,432.9,45.6,463.15a6.68,6.68,0,0,0,0,12.21L296.83,586.78a64.69,64.69,0,0,0,53-.25l244.67-111.2A6.67,6.67,0,0,0,594.45,463.18Z"/><path class="cls-3" d="M526.77,213l-186.91,85a40.34,40.34,0,0,1-33.05.15L115.26,213.14c-32-14.21-32-59.7.1-73.82L306.91,55a40.33,40.33,0,0,1,32.86.15l186.89,84.32C558.29,153.74,558.35,198.63,526.77,213Z"/></g></svg>