<svg xmlns="http://www.w3.org/2000/svg" viewBox="0 0 640 640"><defs><style>.cls-1{fill:none;stroke:#000;stroke-linecap:round;stroke-miterlimit:10;stroke-width:40px;}</style></defs><g id="contact"><path class="cls-1" d="M333.65,460.82,268,517.94c-12.67,11-32-1.06-27.55-17.27l15.22-56a17,17,0,0,1,23.09-11.17L440.7,502.9a17,17,0,0,0,22.56-9.54L598.35,140.91a17,17,0,0,0-21.08-22.25l-525,169.23a17,17,0,0,0-3.21,30.92l108.1,61.78a17,17,0,0,1,7.64,9.23L195,477.63"/><path class="cls-1" d="M161.23,383.83,565.64,135.66c5.16-3.16,10.43,3.86,6,7.93L259.38,437.8"/></g></svg>